<?xml version="1.0" encoding="UTF-8" standalone="no"?>
<svg
   xmlns:osb="http://www.openswatchbook.org/uri/2009/osb"
   xmlns:dc="http://purl.org/dc/elements/1.1/"
   xmlns:cc="http://creativecommons.org/ns#"
   xmlns:rdf="http://www.w3.org/1999/02/22-rdf-syntax-ns#"
   xmlns:svg="http://www.w3.org/2000/svg"
   xmlns="http://www.w3.org/2000/svg"
   xmlns:xlink="http://www.w3.org/1999/xlink"
   xmlns:sodipodi="http://sodipodi.sourceforge.net/DTD/sodipodi-0.dtd"
   xmlns:inkscape="http://www.inkscape.org/namespaces/inkscape"
   version="1.1"
   id="svg58"
   xml:space="preserve"
   width="400mm"
   height="180mm"
   viewBox="0 0 1511.8109 680.31498"
   sodipodi:docname="header.svg"
   inkscape:version="0.92.5 (2060ec1f9f, 2020-04-08)"
   inkscape:export-filename="/home/zokto/Downloads/amos_v4.png"
   inkscape:export-xdpi="127"
   inkscape:export-ydpi="127"><metadata
     id="metadata64"><rdf:RDF><cc:Work
         rdf:about=""><dc:format>image/svg+xml</dc:format><dc:type
           rdf:resource="http://purl.org/dc/dcmitype/StillImage" /><dc:title /></cc:Work></rdf:RDF></metadata><defs
     id="defs62"><linearGradient
       inkscape:collect="always"
       id="linearGradient1038"><stop
         style="stop-color:#ffffd9;stop-opacity:1;"
         offset="0"
         id="stop1034" /><stop
         style="stop-color:#ffffd9;stop-opacity:0;"
         offset="1"
         id="stop1036" /></linearGradient><linearGradient
       id="linearGradient1030"
       osb:paint="solid"><stop
         style="stop-color:#ffffd9;stop-opacity:1;"
         offset="0"
         id="stop1028" /></linearGradient><linearGradient
       id="linearGradient5042"
       osb:paint="solid"><stop
         style="stop-color:#000000;stop-opacity:1;"
         offset="0"
         id="stop5040" /></linearGradient><rect
       x="214.61084"
       y="48.460514"
       width="249.22549"
       height="146.15076"
       id="rect2067" /><rect
       x="304.60895"
       y="34.614651"
       width="247.68707"
       height="149.99683"
       id="rect2059" /><rect
       x="260.7637"
       y="76.921448"
       width="115.38217"
       height="107.69003"
       id="rect2053" /><rect
       x="244.21864"
       y="347.01892"
       width="152.84062"
       height="88.114517"
       id="rect2047" /><linearGradient
       id="linearGradient6209"
       osb:paint="solid"><stop
         style="stop-color:#000000;stop-opacity:1;"
         offset="0"
         id="stop6207" /></linearGradient><clipPath
       clipPathUnits="userSpaceOnUse"
       id="clipPath76"><path
         d="M 0,0 H 8000 V 8000 H 0 Z"
         id="path74" /></clipPath><clipPath
       clipPathUnits="userSpaceOnUse"
       id="clipPath82"><path
         d="M 8000.01,-0.0078125 H 0 V 8000 H 8000.01 V -0.0078125 M 7416.9,6809.21 c -2.79,0 -5.13,-0.99 -7.11,-2.88 -1.98,-1.89 -2.97,-4.41 -2.97,-7.38 0,-4.05 1.8,-7.92 5.22,-11.7 3.51,-3.78 8.46,-6.84 14.94,-9.27 6.39,-2.43 13.68,-3.6 21.87,-3.6 8.91,0 16.38,0.99 22.41,2.79 5.94,1.89 10.89,4.77 14.58,8.64 3.69,3.87 6.39,8.73 8.1,14.76 1.62,5.85 2.52,12.96 2.52,21.15 v 72.09 c 0,5.85 -0.81,10.35 -2.25,13.5 -1.53,3.15 -4.59,4.68 -9.18,4.68 -3.15,0 -5.76,-1.17 -7.83,-3.51 -1.98,-2.43 -3.06,-5.76 -3.06,-10.08 v -3.33 c -4.23,5.76 -8.73,9.99 -13.68,12.69 -4.95,2.7 -10.8,4.05 -17.46,4.05 -5.67,0 -10.8,-1.08 -15.57,-3.15 -4.68,-2.07 -8.82,-5.22 -12.42,-9.27 -3.6,-4.14 -6.39,-9.18 -8.28,-15.21 -1.98,-5.94 -2.97,-12.69 -2.97,-20.16 0,-9.99 1.71,-18.81 4.86,-26.37 3.15,-7.65 7.74,-13.59 13.68,-17.82 5.94,-4.32 12.87,-6.39 20.88,-6.39 6.57,0 12.24,1.44 17.01,4.14 4.77,2.79 9.09,6.93 12.69,12.15 -0.18,-8.1 -0.27,-13.95 -0.54,-17.64 -0.18,-3.69 -1.08,-7.11 -2.34,-10.35 -1.44,-3.15 -3.78,-5.67 -7.2,-7.47 -3.33,-1.71 -8.19,-2.61 -14.31,-2.61 -2.97,0 -5.67,0.27 -7.92,0.81 -2.34,0.63 -4.41,1.44 -6.03,2.7 -1.62,1.17 -3.15,2.61 -4.5,4.23 -1.35,1.71 -2.7,3.33 -3.96,4.95 -2.61,3.24 -5.67,4.86 -9.18,4.86 m -2038.32,102.78 c -3.33,0 -6.03,-1.17 -8.01,-3.51 -2.07,-2.34 -2.97,-5.85 -2.97,-10.53 v -107.01 c 0,-5.4 0.72,-9.54 2.16,-12.33 1.44,-2.79 4.41,-4.23 8.82,-4.23 7.65,0 11.43,5.49 11.43,16.38 v 37.17 c 4.14,-5.49 8.55,-9.63 13.14,-12.51 4.68,-2.88 10.35,-4.23 17.19,-4.23 5.58,0 10.8,1.17 15.75,3.51 4.86,2.25 9.18,5.67 12.78,9.99 3.6,4.32 6.39,9.63 8.46,16.11 2.07,6.3 3.06,13.32 3.06,20.97 0,10.35 -1.8,19.26 -5.31,26.91 -3.6,7.56 -8.46,13.32 -14.58,17.19 -6.12,3.96 -12.87,5.94 -20.16,5.94 -6.12,0 -11.61,-1.35 -16.47,-4.05 -4.77,-2.7 -9.36,-6.93 -13.86,-12.69 v 2.97 c 0,4.5 -1.08,7.92 -3.15,10.35 -2.16,2.43 -4.86,3.6 -8.28,3.6 m 1968.3,-0.09 c -7.65,0 -11.52,-5.49 -11.52,-16.65 v -69.03 c 0,-4.95 1.08,-8.73 3.24,-11.25 2.25,-2.52 5.04,-3.78 8.46,-3.78 3.51,0 6.39,1.26 8.64,3.69 2.25,2.52 3.33,6.39 3.33,11.34 v 20.7 c 0,7.47 0.27,13.77 0.72,18.9 0.45,5.22 1.35,9.63 2.52,13.41 1.26,3.78 2.97,6.57 5.13,8.46 2.25,1.98 5.04,2.88 8.55,2.88 2.52,0 5.49,-0.54 8.82,-1.62 3.33,-1.17 5.49,-1.71 6.3,-1.71 2.34,0 4.5,0.99 6.48,2.97 1.98,1.89 3.06,4.41 3.06,7.47 0,4.32 -2.43,7.74 -7.11,10.35 -4.68,2.52 -9.45,3.87 -14.58,3.87 -4.95,0 -8.91,-1.35 -11.88,-3.87 -2.97,-2.61 -5.94,-6.48 -8.73,-11.52 -0.18,5.04 -1.17,8.91 -2.88,11.52 -1.8,2.52 -4.59,3.87 -8.55,3.87 m -77.49,0 c -7.11,0 -13.59,-1.17 -19.44,-3.6 -5.85,-2.34 -10.8,-5.76 -14.94,-10.17 -4.14,-4.5 -7.2,-9.81 -9.45,-16.02 -2.25,-6.21 -3.33,-13.05 -3.33,-20.61 0,-7.47 1.08,-14.22 3.24,-20.34 2.16,-6.12 5.4,-11.43 9.63,-16.02 4.23,-4.5 9.09,-7.92 14.85,-10.35 5.76,-2.43 12.24,-3.6 19.44,-3.6 7.2,0 13.77,1.17 19.53,3.51 5.85,2.52 10.8,5.85 14.94,10.35 4.23,4.5 7.38,9.81 9.63,16.02 2.16,6.3 3.33,13.05 3.33,20.43 0,7.47 -1.17,14.22 -3.33,20.43 -2.16,6.12 -5.31,11.52 -9.54,16.02 -4.14,4.41 -9.18,7.92 -15.03,10.35 -5.85,2.43 -12.33,3.6 -19.53,3.6 m -81.72,-73.44 c -3.69,0 -6.75,-1.35 -9.27,-3.96 -2.43,-2.7 -3.69,-5.85 -3.69,-9.54 0,-4.32 1.26,-7.74 3.96,-10.17 2.52,-2.43 5.67,-3.6 9.27,-3.6 3.42,0 6.48,1.17 9,3.69 2.61,2.43 3.87,5.76 3.87,10.08 0,3.69 -1.26,6.93 -3.87,9.54 -2.52,2.61 -5.67,3.96 -9.27,3.96 m -98.37,9.18 c -2.79,0 -5.22,-0.99 -7.02,-2.97 -1.89,-1.89 -2.88,-4.23 -2.88,-6.93 0,-4.14 1.53,-8.19 4.41,-12.33 2.88,-4.05 7.38,-7.47 13.5,-10.17 6.12,-2.7 13.41,-4.05 21.87,-4.05 9,0 16.56,1.26 22.86,3.69 6.21,2.52 10.89,6.21 14.13,11.07 3.24,4.86 4.77,10.71 4.77,17.55 0,4.59 -1.17,8.55 -3.6,12.15 -2.43,3.51 -5.94,6.66 -10.62,9.18 -4.68,2.61 -10.71,4.86 -18.09,6.75 -6.21,1.53 -11.07,2.88 -14.58,3.96 -3.6,1.17 -6.39,2.52 -8.46,4.14 -2.07,1.71 -3.15,3.87 -3.15,6.48 0,2.79 1.44,5.22 4.32,7.11 2.79,1.89 6.39,2.88 10.71,2.88 4.14,0 7.38,-0.81 9.9,-2.25 2.43,-1.44 4.5,-3.33 6.3,-5.76 2.25,-2.88 4.23,-5.04 5.85,-6.48 1.8,-1.53 3.87,-2.25 6.3,-2.25 3.33,0 5.94,0.99 7.74,2.7 1.89,1.89 2.79,4.14 2.79,7.02 0,2.61 -0.81,5.22 -2.61,8.01 -1.71,2.7 -4.23,5.22 -7.47,7.47 -3.24,2.16 -7.38,3.96 -12.24,5.31 -4.95,1.35 -10.44,1.98 -16.56,1.98 -7.92,0 -14.58,-1.35 -20.07,-3.96 -5.58,-2.61 -9.81,-6.12 -12.6,-10.62 -2.88,-4.32 -4.32,-9 -4.32,-14.04 0,-5.58 1.62,-10.26 4.68,-14.04 2.97,-3.78 7.2,-6.93 12.33,-9.27 5.13,-2.25 11.79,-4.5 19.98,-6.66 7.2,-1.8 12.42,-3.69 15.57,-5.76 3.15,-1.89 4.77,-5.13 4.77,-9.54 0,-2.79 -1.53,-5.31 -4.59,-7.56 -3.06,-2.16 -6.93,-3.33 -11.7,-3.33 -5.85,0 -10.53,1.08 -13.86,3.33 -3.42,2.16 -6.3,5.49 -8.82,9.9 -1.17,2.25 -2.43,4.05 -3.78,5.4 -1.35,1.26 -3.24,1.89 -5.76,1.89 m -66.96,64.26 c -7.74,0 -11.61,-5.49 -11.61,-16.65 v -69.03 c 0,-4.95 1.08,-8.73 3.33,-11.25 2.16,-2.52 4.95,-3.78 8.37,-3.78 3.51,0 6.39,1.26 8.64,3.69 2.25,2.52 3.42,6.39 3.42,11.34 v 20.7 c 0,7.47 0.27,13.77 0.72,18.9 0.36,5.22 1.26,9.63 2.52,13.41 1.17,3.78 2.88,6.57 5.13,8.46 2.16,1.98 5.04,2.88 8.46,2.88 2.52,0 5.49,-0.54 8.82,-1.62 3.33,-1.17 5.49,-1.71 6.3,-1.71 2.34,0 4.59,0.99 6.48,2.97 2.07,1.89 3.06,4.41 3.06,7.47 0,4.32 -2.34,7.74 -7.02,10.35 -4.77,2.52 -9.54,3.87 -14.58,3.87 -4.95,0 -8.91,-1.35 -11.97,-3.87 -2.97,-2.61 -5.85,-6.48 -8.73,-11.52 -0.18,5.04 -1.17,8.91 -2.88,11.52 -1.71,2.52 -4.59,3.87 -8.46,3.87 m -77.58,0 c -7.02,0 -13.5,-1.17 -19.44,-3.6 -5.76,-2.34 -10.8,-5.76 -14.94,-10.17 -4.14,-4.5 -7.2,-9.81 -9.45,-16.02 -2.16,-6.21 -3.24,-13.05 -3.24,-20.61 0,-7.47 1.08,-14.22 3.24,-20.34 2.16,-6.12 5.31,-11.43 9.54,-16.02 4.14,-4.5 9.18,-7.92 14.85,-10.35 5.76,-2.43 12.24,-3.6 19.44,-3.6 7.29,0 13.77,1.17 19.62,3.51 5.76,2.52 10.71,5.85 14.94,10.35 4.14,4.5 7.38,9.81 9.54,16.02 2.25,6.3 3.33,13.05 3.33,20.43 0,7.47 -1.08,14.22 -3.24,20.43 -2.16,6.12 -5.4,11.52 -9.54,16.02 -4.23,4.41 -9.18,7.92 -15.03,10.35 -5.94,2.43 -12.42,3.6 -19.62,3.6 m -103.23,-2.07 c -3.51,0 -6.3,-0.81 -8.19,-2.52 -1.89,-1.62 -2.79,-3.78 -2.79,-6.39 0,-2.61 0.9,-4.77 2.7,-6.39 1.8,-1.71 4.41,-2.61 7.74,-2.61 h 3.24 v -47.61 c 0,-7.65 0.54,-13.77 1.8,-18.36 1.08,-4.68 3.69,-8.28 7.47,-10.89 3.78,-2.61 9.45,-3.87 16.92,-3.87 7.74,0 13.77,0.99 18,3.15 4.14,2.16 6.21,5.22 6.21,9.18 0,2.34 -0.81,4.32 -2.34,5.94 -1.44,1.53 -3.24,2.34 -5.13,2.34 -1.35,0 -3.24,-0.18 -5.58,-0.72 -2.34,-0.54 -4.23,-0.81 -5.67,-0.81 -2.52,0 -4.41,0.72 -5.49,1.98 -1.08,1.26 -1.8,2.97 -2.16,5.13 -0.18,2.07 -0.36,5.04 -0.36,8.91 v 45.63 h 4.41 c 4.77,0 8.37,0.72 10.89,1.98 2.52,1.35 3.78,3.69 3.78,7.02 0,2.61 -0.9,4.77 -2.61,6.39 -1.8,1.71 -4.41,2.52 -7.74,2.52 h -8.73 v 16.83 c 0,4.23 -0.18,7.47 -0.63,9.72 -0.45,2.25 -1.53,4.14 -3.06,5.76 -2.43,2.34 -5.22,3.51 -8.19,3.51 -2.16,0 -4.14,-0.54 -5.85,-1.53 -1.71,-1.08 -3.06,-2.52 -3.96,-4.14 -0.99,-1.71 -1.53,-3.6 -1.71,-5.85 -0.18,-2.25 -0.27,-5.4 -0.27,-9.36 v -14.94 h -2.7 m -170.91,2.25 c -7.2,0 -13.68,-1.17 -19.53,-3.6 -5.85,-2.34 -10.8,-5.76 -14.76,-10.26 -4.05,-4.5 -7.02,-9.9 -9.09,-16.11 -2.07,-6.3 -3.15,-13.05 -3.15,-20.43 0,-15.48 4.23,-27.81 12.69,-36.9 8.37,-9.09 20.25,-13.59 35.55,-13.59 6.66,0 12.6,0.9 17.64,2.7 5.13,1.8 9.45,4.05 12.78,6.84 3.51,2.79 5.94,5.67 7.65,8.64 1.71,2.97 2.52,5.67 2.52,7.83 0,2.61 -0.72,4.5 -2.25,5.94 -1.53,1.44 -3.42,2.07 -5.94,2.07 -2.25,0 -3.96,-0.54 -5.22,-1.62 -2.88,-2.97 -5.4,-5.22 -7.2,-6.93 -1.89,-1.71 -3.87,-3.24 -6.03,-4.77 -2.25,-1.44 -4.5,-2.52 -6.84,-3.24 -2.34,-0.72 -4.95,-1.08 -7.83,-1.08 -4.23,0 -8.1,1.08 -11.61,3.24 -3.51,2.25 -6.3,5.49 -8.46,9.72 -2.07,4.32 -3.24,9.27 -3.24,14.94 h 46.44 c 6.21,0 10.98,0.9 14.49,2.79 3.42,1.8 5.13,5.85 5.13,12.06 0,6.75 -1.71,13.32 -4.95,19.89 -3.33,6.39 -8.28,11.7 -14.94,15.75 -6.66,4.14 -14.67,6.12 -23.85,6.12 m -132.48,-0.18 c -2.07,0 -3.96,-0.54 -5.67,-1.53 -1.8,-1.08 -3.15,-2.43 -4.14,-4.14 -0.99,-1.62 -1.44,-3.33 -1.44,-5.04 0,-1.08 0.18,-2.34 0.54,-3.87 0.36,-1.53 0.81,-3.06 1.35,-4.5 0.54,-1.44 1.08,-2.88 1.62,-4.32 l 22.68,-58.32 c 2.25,-5.67 3.87,-9.45 4.77,-11.34 0.99,-1.98 2.43,-3.69 4.5,-5.31 1.98,-1.53 4.68,-2.34 8.01,-2.34 2.61,0 4.86,0.54 6.66,1.53 1.8,0.99 3.33,2.43 4.59,4.23 1.26,1.98 2.43,4.14 3.42,6.75 0.99,2.61 1.89,4.77 2.52,6.48 l 22.77,58.95 c 0.72,1.62 1.17,3.06 1.71,4.32 0.54,1.26 0.9,2.7 1.26,4.14 0.36,1.44 0.63,2.7 0.63,3.78 0,2.79 -1.08,5.22 -3.15,7.38 -2.16,2.07 -4.77,3.15 -7.74,3.15 -3.24,0 -5.58,-0.99 -7.11,-2.97 -1.62,-1.98 -3.24,-5.22 -4.86,-9.99 l -20.7,-58.68 -19.17,56.25 c -1.8,5.58 -3.51,9.45 -4.95,11.79 -1.53,2.43 -4.23,3.6 -8.1,3.6 m -64.98,-19.08 c 6.48,0 10.8,-2.25 13.05,-6.57 2.16,-4.32 3.24,-10.53 3.24,-18.72 v -41.31 c 0,-4.86 1.08,-8.55 3.33,-11.16 2.16,-2.61 5.04,-3.87 8.55,-3.87 3.42,0 6.3,1.26 8.46,3.78 2.16,2.52 3.33,6.3 3.33,11.25 v 46.17 c 0,5.4 -0.36,9.9 -0.72,13.41 -0.54,3.42 -1.53,6.75 -3.06,9.81 -2.43,5.22 -6.12,9.18 -11.07,11.97 -4.95,2.97 -10.53,4.32 -16.74,4.32 -6.48,0 -12.15,-1.35 -17.19,-4.05 -4.86,-2.7 -9.45,-6.93 -13.59,-12.6 v 2.97 c 0,2.97 -0.54,5.49 -1.62,7.56 -0.99,1.98 -2.25,3.6 -4.05,4.59 -1.62,0.99 -3.51,1.53 -5.58,1.53 -3.42,0 -6.12,-1.17 -8.1,-3.51 -1.98,-2.34 -2.97,-5.85 -2.97,-10.53 v -71.64 c 0,-4.86 1.08,-8.55 3.33,-11.16 2.16,-2.61 5.04,-3.87 8.46,-3.87 3.51,0 6.39,1.26 8.64,3.69 2.16,2.52 3.33,6.39 3.33,11.34 v 31.05 c 0,10.17 0.63,17.01 1.71,20.7 1.62,4.59 4.23,8.28 7.65,10.8 3.51,2.7 7.38,4.05 11.61,4.05 m -80.55,19.08 c -3.51,0 -6.39,-1.26 -8.46,-3.69 -2.25,-2.52 -3.33,-6.21 -3.33,-11.07 v -70.92 c 0,-4.86 1.08,-8.55 3.33,-11.16 2.07,-2.61 4.95,-3.87 8.46,-3.87 3.51,0 6.3,1.26 8.55,3.78 2.25,2.52 3.42,6.3 3.42,11.25 v 71.64 c 0,4.41 -1.17,7.83 -3.42,10.35 -2.25,2.43 -5.04,3.69 -8.55,3.69 m -57.6,-86.76 c 2.61,-4.5 5.13,-8.01 7.47,-10.44 2.43,-2.34 4.86,-3.51 7.29,-3.51 2.88,0 5.49,0.99 7.74,3.06 2.25,2.16 3.42,4.5 3.42,7.02 0,1.44 -0.72,4.68 -2.16,9.72 -1.53,5.04 -2.25,9.9 -2.25,14.58 0.09,4.95 0.09,9.45 0.18,13.5 0,4.05 0,9 0,14.85 0,9.18 -1.26,16.56 -3.69,22.14 -2.43,5.58 -6.66,9.63 -12.6,12.15 -6.03,2.61 -14.22,3.87 -24.66,3.87 -9.36,0 -17.19,-1.26 -23.4,-3.96 -6.3,-2.7 -10.89,-6.03 -13.86,-10.17 -2.97,-4.14 -4.41,-8.37 -4.41,-12.69 0,-2.88 0.99,-5.13 2.88,-6.93 1.98,-1.71 4.23,-2.61 6.93,-2.61 2.97,0 4.86,0.54 5.76,1.62 0.9,1.17 2.43,3.42 4.68,6.93 2.07,3.6 4.68,6.21 7.74,7.92 3.06,1.8 7.65,2.7 13.68,2.7 6.93,0 11.61,-1.53 13.86,-4.59 2.25,-3.06 3.51,-7.92 3.78,-14.49 -4.95,-1.44 -9.63,-2.79 -13.86,-3.78 -4.32,-1.08 -9.36,-2.25 -15.39,-3.51 -5.94,-1.26 -9.72,-2.07 -11.25,-2.43 -7.2,-1.62 -12.78,-4.86 -16.92,-9.63 -4.05,-4.77 -6.21,-10.53 -6.21,-17.28 0,-5.04 1.26,-9.72 3.78,-14.04 2.52,-4.32 6.03,-7.74 10.62,-10.26 4.68,-2.43 9.99,-3.69 16.11,-3.69 6.66,0 12.69,1.17 18,3.51 5.4,2.25 10.98,5.76 16.74,10.44 m -120.6,67.59 c 3.87,0 6.75,-1.17 8.64,-3.33 1.98,-2.16 3.15,-4.86 3.6,-8.1 0.36,-3.24 0.63,-7.47 0.63,-12.78 v -41.67 c 0,-5.22 1.17,-9.09 3.42,-11.7 2.34,-2.7 5.22,-3.96 8.82,-3.96 3.69,0 6.66,1.26 9,3.87 2.25,2.61 3.33,6.57 3.33,11.79 v 48.33 c 0,9.63 -0.99,16.74 -2.97,21.15 -2.34,5.04 -5.85,8.82 -10.53,11.52 -4.77,2.7 -10.26,3.96 -16.83,3.96 -5.58,0 -10.62,-1.26 -15.21,-3.69 -4.59,-2.43 -8.91,-6.21 -12.87,-11.25 -2.79,4.95 -6.3,8.73 -10.62,11.16 -4.32,2.52 -9.36,3.78 -15.39,3.78 -5.67,0 -10.98,-1.26 -15.66,-3.6 -4.68,-2.43 -9.09,-6.21 -13.14,-11.34 v 2.34 c 0,3.96 -1.08,7.11 -3.33,9.36 -2.16,2.25 -4.86,3.42 -8.1,3.42 -3.33,0 -6.03,-1.26 -8.19,-3.69 -1.98,-2.34 -2.97,-5.94 -2.97,-10.62 v -70.92 c 0,-5.13 1.08,-9 3.42,-11.61 2.25,-2.7 5.22,-3.96 8.82,-3.96 3.6,0 6.57,1.26 8.82,3.96 2.25,2.61 3.33,6.48 3.33,11.7 v 33.48 c 0,10.44 1.17,18.45 3.69,23.94 2.52,5.67 7.56,8.46 15.3,8.46 3.87,0 6.75,-1.17 8.55,-3.33 1.8,-2.25 2.88,-5.13 3.33,-8.55 0.36,-3.51 0.63,-8.28 0.63,-14.49 v -39.51 c 0,-5.22 1.08,-9.18 3.33,-11.79 2.16,-2.61 5.13,-3.87 8.64,-3.87 3.78,0 6.75,1.26 9,3.87 2.25,2.61 3.42,6.57 3.42,11.79 v 32.85 c 0,10.71 0.81,18.09 2.61,22.23 1.62,3.33 3.69,5.94 6.57,7.92 2.79,1.89 5.76,2.88 8.91,2.88 m -163.17,19.17 c -7.11,0 -13.5,-1.17 -19.35,-3.6 -5.94,-2.34 -10.89,-5.76 -15.03,-10.17 -4.14,-4.5 -7.29,-9.81 -9.45,-16.02 -2.16,-6.21 -3.33,-13.05 -3.33,-20.61 0,-7.47 1.08,-14.22 3.24,-20.34 2.25,-6.12 5.4,-11.43 9.54,-16.02 4.23,-4.5 9.27,-7.92 15.03,-10.35 5.67,-2.43 12.15,-3.6 19.35,-3.6 7.2,0 13.77,1.17 19.53,3.51 5.85,2.52 10.8,5.85 15.03,10.35 4.14,4.5 7.29,9.81 9.54,16.02 2.16,6.3 3.33,13.05 3.33,20.43 0,7.47 -1.08,14.22 -3.33,20.43 -2.16,6.12 -5.31,11.52 -9.45,16.02 -4.23,4.41 -9.27,7.92 -15.12,10.35 -5.76,2.43 -12.33,3.6 -19.53,3.6 m -87.75,-84.15 v -2.43 c 0,-4.59 0.99,-8.01 3.15,-10.44 2.16,-2.52 4.86,-3.69 8.01,-3.69 3.33,0 6.03,1.17 8.1,3.51 2.16,2.34 3.15,5.94 3.15,10.62 v 109.35 c 0,4.59 -0.99,8.19 -2.88,10.53 -1.98,2.43 -4.77,3.6 -8.37,3.6 -3.6,0 -6.3,-1.26 -8.28,-3.87 -1.89,-2.61 -2.88,-6.48 -2.88,-11.61 v -36.54 c -4.5,5.13 -9.09,8.91 -13.77,11.25 -4.68,2.52 -10.44,3.78 -17.28,3.78 -11.79,0 -21.33,-4.32 -28.62,-12.96 -7.29,-8.64 -10.89,-20.79 -10.89,-36.27 0,-7.38 0.9,-14.13 2.79,-20.43 1.8,-6.3 4.5,-11.79 8.01,-16.47 3.51,-4.68 7.74,-8.19 12.6,-10.8 4.77,-2.43 10.08,-3.69 15.75,-3.69 4.32,0 8.28,0.63 11.88,1.8 3.6,1.26 7.02,3.06 10.08,5.49 3.06,2.34 6.21,5.49 9.45,9.27 m -207.36,84.15 c -3.51,0 -6.3,-1.26 -8.55,-3.69 -2.16,-2.52 -3.24,-6.21 -3.24,-11.07 v -70.92 c 0,-4.86 1.08,-8.55 3.24,-11.16 2.25,-2.61 5.04,-3.87 8.55,-3.87 3.42,0 6.3,1.26 8.64,3.78 2.16,2.52 3.33,6.3 3.33,11.25 v 71.64 c 0,4.41 -1.17,7.83 -3.33,10.35 -2.34,2.43 -5.22,3.69 -8.64,3.69 m -48.33,36.9 c -3.6,0 -6.39,-1.26 -8.55,-3.78 -2.16,-2.61 -3.15,-6.3 -3.15,-11.25 v -107.55 c 0,-4.86 1.08,-8.55 3.24,-11.16 2.16,-2.61 5.04,-3.87 8.46,-3.87 3.51,0 6.48,1.26 8.64,3.69 2.25,2.52 3.42,6.39 3.42,11.34 v 107.55 c 0,4.95 -1.17,8.73 -3.33,11.25 -2.25,2.52 -5.13,3.78 -8.73,3.78 m -98.82,-121.05 c 2.61,-3.15 4.68,-5.49 6.21,-7.11 1.62,-1.53 3.6,-3.06 5.85,-4.5 2.25,-1.53 4.95,-2.7 8.19,-3.6 3.24,-0.9 6.66,-1.35 10.35,-1.35 5.94,0 11.43,1.26 16.38,3.69 4.95,2.61 9.18,6.12 12.69,10.71 3.51,4.68 6.12,10.08 7.92,16.29 1.89,6.3 2.79,13.14 2.79,20.7 0,10.17 -1.62,18.99 -4.95,26.37 -3.24,7.38 -7.92,13.05 -13.86,17.01 -5.94,3.87 -12.87,5.85 -20.7,5.85 -6.84,0 -12.6,-1.26 -17.28,-3.87 -4.59,-2.61 -9.18,-6.3 -13.59,-11.16 v 37.89 c 0,4.5 -0.99,8.01 -3.06,10.44 -1.89,2.43 -4.77,3.69 -8.37,3.69 -3.51,0 -6.21,-1.26 -8.1,-3.87 -1.98,-2.61 -2.97,-6.39 -2.97,-11.34 v -108.27 c 0,-4.68 0.99,-8.1 2.97,-10.62 2.07,-2.34 4.68,-3.51 8.1,-3.51 3.24,0 6.03,1.17 8.19,3.51 2.07,2.43 3.24,5.94 3.24,10.62 v 2.43 m -67.77,0.54 v -3.15 c 0,-4.41 1.08,-7.83 3.15,-10.26 2.16,-2.43 4.77,-3.69 8.01,-3.69 3.24,0 5.94,1.17 7.92,3.51 2.07,2.34 3.15,5.94 3.15,10.62 v 71.82 c 0,4.95 -1.08,8.64 -3.24,11.07 -2.16,2.43 -4.95,3.69 -8.55,3.69 -3.51,0 -6.39,-1.26 -8.55,-3.69 -2.25,-2.52 -3.33,-6.21 -3.33,-11.07 v -30.15 c 0,-11.88 -0.63,-19.53 -1.98,-23.04 -1.62,-4.05 -4.23,-7.29 -7.74,-9.72 -3.51,-2.43 -7.29,-3.69 -11.34,-3.69 -4.14,0 -7.38,1.08 -9.72,3.24 -2.43,2.25 -4.14,5.31 -5.13,9.27 -0.81,3.87 -1.35,8.64 -1.35,14.4 v 39.69 c 0,4.86 -1.08,8.55 -3.24,11.07 -2.25,2.43 -5.13,3.69 -8.73,3.69 -3.51,0 -6.39,-1.26 -8.55,-3.69 -2.16,-2.43 -3.24,-6.12 -3.24,-11.07 V 6848 c 0,-9.81 1.53,-17.37 4.5,-22.68 2.43,-4.32 6.03,-7.74 10.53,-10.26 4.59,-2.43 9.72,-3.69 15.48,-3.69 4.68,0 9,0.63 12.69,1.89 3.69,1.17 7.11,3.06 10.26,5.67 3.15,2.52 6.12,5.67 9,9.36 m 1236.06,83.79 c -9.9,0 -18.45,-2.07 -25.56,-6.39 -7.11,-4.23 -12.51,-10.35 -16.29,-18.09 -3.87,-7.74 -5.67,-16.83 -5.67,-27 0,-14.94 4.14,-26.91 12.33,-35.82 8.19,-8.91 19.71,-13.41 34.38,-13.41 6.84,0 13.05,0.99 18.54,2.88 5.58,1.98 10.17,4.5 13.77,7.74 3.6,3.15 6.3,6.48 8.1,9.99 1.8,3.51 2.61,6.75 2.61,9.9 0,2.61 -0.9,5.04 -2.88,7.38 -1.89,2.25 -4.32,3.42 -7.2,3.42 -2.43,0 -4.5,-0.81 -6.12,-2.34 -1.71,-1.62 -3.24,-3.78 -4.68,-6.57 -2.61,-4.68 -5.67,-8.19 -9.09,-10.53 -3.33,-2.34 -7.47,-3.51 -12.24,-3.51 -3.51,0 -6.75,0.72 -9.72,2.16 -2.88,1.44 -5.49,3.51 -7.56,6.3 -2.07,2.79 -3.69,6.03 -4.77,9.99 -1.08,3.87 -1.62,8.19 -1.62,12.87 0,9.9 2.07,17.73 6.39,23.49 4.32,5.67 9.99,8.64 16.92,8.64 4.95,0 8.91,-1.26 12.06,-3.51 3.24,-2.34 6.21,-5.85 9.09,-10.44 1.71,-2.34 3.15,-4.05 4.5,-5.04 1.26,-1.08 2.88,-1.62 4.86,-1.62 2.97,0 5.58,0.99 7.65,3.06 2.16,2.07 3.24,4.59 3.24,7.56 0,2.88 -0.99,6.03 -2.79,9.36 -1.98,3.33 -4.68,6.57 -8.19,9.54 -3.69,2.88 -7.92,5.31 -13.05,7.2 -5.22,1.89 -10.8,2.79 -17.01,2.79 m -941.85,0 c -9.81,0 -18.36,-2.07 -25.47,-6.39 -7.11,-4.23 -12.6,-10.35 -16.38,-18.09 -3.78,-7.74 -5.67,-16.83 -5.67,-27 0,-14.94 4.14,-26.91 12.33,-35.82 8.28,-8.91 19.71,-13.41 34.38,-13.41 6.93,0 13.14,0.99 18.63,2.88 5.49,1.98 10.08,4.5 13.68,7.74 3.69,3.15 6.3,6.48 8.1,9.99 1.8,3.51 2.7,6.75 2.7,9.9 0,2.61 -0.99,5.04 -2.88,7.38 -1.98,2.25 -4.32,3.42 -7.2,3.42 -2.43,0 -4.5,-0.81 -6.21,-2.34 -1.71,-1.62 -3.24,-3.78 -4.68,-6.57 -2.61,-4.68 -5.67,-8.19 -9,-10.53 -3.42,-2.34 -7.47,-3.51 -12.33,-3.51 -3.42,0 -6.75,0.72 -9.63,2.16 -2.97,1.44 -5.49,3.51 -7.65,6.3 -2.07,2.79 -3.6,6.03 -4.77,9.99 -1.08,3.87 -1.62,8.19 -1.62,12.87 0,9.9 2.16,17.73 6.39,23.49 4.32,5.67 9.99,8.64 17.01,8.64 4.86,0 8.82,-1.26 12.06,-3.51 3.15,-2.34 6.12,-5.85 9.09,-10.44 1.62,-2.34 3.06,-4.05 4.41,-5.04 1.26,-1.08 2.88,-1.62 4.86,-1.62 3.06,0 5.58,0.99 7.74,3.06 2.07,2.07 3.15,4.59 3.15,7.56 0,2.88 -0.9,6.03 -2.79,9.36 -1.89,3.33 -4.68,6.57 -8.19,9.54 -3.6,2.88 -7.92,5.31 -13.05,7.2 -5.13,1.89 -10.8,2.79 -17.01,2.79 m 557.46,35.64 c -3.24,0 -6.03,-1.08 -8.37,-3.33 -2.43,-2.34 -3.69,-5.22 -3.69,-8.73 0,-3.87 1.26,-6.84 3.6,-9 2.34,-2.16 5.13,-3.15 8.46,-3.15 3.15,0 5.94,1.08 8.28,3.24 2.25,2.16 3.42,5.13 3.42,8.91 0,3.96 -1.17,6.93 -3.51,9 -2.43,2.07 -5.13,3.06 -8.19,3.06 m -636.57,0 c -3.15,0 -5.94,-1.08 -8.37,-3.33 -2.43,-2.34 -3.6,-5.22 -3.6,-8.73 0,-3.87 1.17,-6.84 3.51,-9 2.34,-2.16 5.22,-3.15 8.46,-3.15 3.24,0 5.94,1.08 8.28,3.24 2.34,2.16 3.51,5.13 3.51,8.91 0,3.96 -1.17,6.93 -3.6,9 -2.34,2.07 -5.13,3.06 -8.19,3.06 m 675.72,354.96 c -38.43,0 -71.28,-14.22 -98.46,-42.57 -27.18,-28.44 -40.77,-62.73 -40.77,-102.78 0,-40.14 13.59,-74.43 40.77,-102.78 27.18,-28.44 60.03,-42.66 98.46,-42.66 38.43,0 71.19,14.22 98.37,42.66 27.18,28.35 40.86,62.64 40.86,102.78 0,40.05 -13.68,74.34 -40.86,102.78 -27.18,28.35 -59.94,42.57 -98.37,42.57 m -123.57,-475.29 c -4.41,0 -8.01,1.26 -10.71,3.96 -2.79,2.61 -4.14,5.76 -4.14,9.54 0,3.69 1.17,6.48 3.51,8.55 2.34,1.98 4.77,3.33 7.29,4.05 2.52,0.72 7.2,1.8 13.77,3.33 6.66,1.44 11.7,2.88 15.21,4.23 v -3.51 c 0,-8.73 -1.08,-14.85 -3.24,-18.63 -1.8,-3.33 -4.77,-6.21 -8.73,-8.28 -3.96,-2.16 -8.28,-3.24 -12.96,-3.24 m 960.93,2.16 c -4.77,0 -8.91,1.26 -12.42,3.87 -3.51,2.61 -6.12,6.3 -8.1,11.16 -1.89,4.77 -2.79,10.44 -2.79,16.92 0,6.57 0.99,12.24 2.88,17.1 1.89,4.95 4.59,8.64 8.19,11.16 3.51,2.52 7.56,3.78 12.24,3.78 7.2,0 12.87,-2.88 17.1,-8.46 4.32,-5.58 6.39,-13.5 6.39,-23.58 0,-9.99 -2.07,-17.82 -6.39,-23.49 -4.23,-5.58 -9.9,-8.46 -17.1,-8.46 m -324.63,0 c -4.77,0 -8.91,1.26 -12.42,3.87 -3.51,2.61 -6.12,6.3 -8.01,11.16 -1.89,4.77 -2.88,10.44 -2.88,16.92 0,6.57 0.99,12.24 2.88,17.1 1.89,4.95 4.59,8.64 8.19,11.16 3.51,2.52 7.65,3.78 12.24,3.78 7.2,0 12.87,-2.88 17.19,-8.46 4.23,-5.58 6.39,-13.5 6.39,-23.58 0,-9.99 -2.16,-17.82 -6.39,-23.49 -4.32,-5.58 -9.99,-8.46 -17.19,-8.46 m -893.52,0 c -4.77,0 -8.91,1.26 -12.42,3.87 -3.51,2.61 -6.21,6.3 -8.1,11.16 -1.8,4.77 -2.79,10.44 -2.79,16.92 0,6.57 0.99,12.24 2.88,17.1 1.89,4.95 4.59,8.64 8.19,11.16 3.51,2.52 7.56,3.78 12.24,3.78 7.2,0 12.87,-2.88 17.19,-8.46 4.23,-5.58 6.39,-13.5 6.39,-23.58 0,-9.99 -2.16,-17.82 -6.39,-23.49 -4.32,-5.58 -9.99,-8.46 -17.19,-8.46 m -111.87,0.72 c -4.05,0 -7.92,1.17 -11.43,3.6 -3.42,2.43 -6.12,5.94 -8.1,10.71 -2.07,4.68 -3.06,10.44 -3.06,17.1 0,6.39 0.99,11.97 2.88,16.74 1.8,4.86 4.5,8.55 7.92,11.16 3.42,2.52 7.29,3.87 11.61,3.87 4.23,0 8.01,-1.26 11.52,-3.78 3.51,-2.52 6.3,-6.12 8.37,-10.89 2.07,-4.77 3.06,-10.44 3.06,-17.1 0,-7.02 -0.99,-12.87 -3.06,-17.55 -2.07,-4.68 -4.77,-8.19 -8.28,-10.44 -3.42,-2.25 -7.2,-3.42 -11.43,-3.42 m -305.82,0 c -7.02,0 -12.69,2.7 -17.01,8.01 -4.32,5.31 -6.48,12.87 -6.48,22.68 0,6.75 0.99,12.6 3.06,17.37 2.07,4.95 4.77,8.64 8.37,11.25 3.51,2.52 7.47,3.87 12.06,3.87 4.41,0 8.28,-1.35 11.61,-3.87 3.24,-2.61 5.85,-6.21 7.65,-10.98 1.8,-4.68 2.7,-10.35 2.7,-16.92 0,-10.08 -2.16,-17.82 -6.48,-23.22 -4.32,-5.49 -9.45,-8.19 -15.48,-8.19 m -219.06,0 c -6.66,0 -12.15,2.79 -16.65,8.28 -4.5,5.4 -6.75,13.14 -6.75,22.95 0,10.53 2.25,18.36 6.75,23.85 4.5,5.31 10.08,8.1 16.65,8.1 4.14,0 7.83,-1.26 11.25,-3.78 3.42,-2.52 6.03,-6.12 7.92,-10.89 1.98,-4.59 2.88,-10.26 2.88,-16.83 0,-6.75 -0.99,-12.51 -3.06,-17.37 -1.98,-4.68 -4.68,-8.28 -8.01,-10.71 -3.42,-2.43 -7.11,-3.6 -10.98,-3.6 m 2035.71,1.53 c -6.57,0 -12.06,2.61 -16.2,7.74 -4.23,5.22 -6.39,12.78 -6.39,22.77 0,9.99 2.07,17.64 6.21,23.04 4.05,5.31 9.54,8.1 16.29,8.1 6.93,0 12.51,-2.88 16.74,-8.55 4.32,-5.58 6.48,-13.41 6.48,-23.58 0,-6.3 -1.08,-11.7 -3.33,-16.2 -2.25,-4.41 -5.04,-7.74 -8.55,-9.9 -3.51,-2.25 -7.29,-3.42 -11.25,-3.42 m -758.88,37.8 h -43.02 c 0.9,8.28 3.15,14.58 6.93,18.9 3.78,4.23 8.64,6.39 14.58,6.39 6.21,0 11.16,-2.16 15.03,-6.3 3.78,-4.23 5.94,-10.53 6.48,-18.99 m -259.29,175.14 c -20.02,0 -37.9,5.2 -53.62,15.6 l 19.09,24.52 c 10.89,-6.57 23.66,-9.88 38.31,-9.88 17.01,0 31.5,5.22 43.47,15.66 12.96,10.62 20.7,25.47 23.22,44.46 h -35.19 c -1.08,-18.18 -11.07,-27.27 -30.06,-27.27 -7,0 -13.15,1.46 -18.44,4.39 l 55.89,71.75 h 27.8 c -1.4,9.42 -4.18,17.77 -8.29,25.05 l 16.82,21.6 c 16.21,-20.49 24.32,-44.92 24.32,-73.29 0,-31.5 -9.99,-58.23 -29.97,-79.92 -19.98,-21.78 -44.37,-32.67 -73.35,-32.67 m -73.81,33.08 c -19.73,21.61 -29.6,48.21 -29.6,79.51 0,31.5 9.99,58.14 29.97,79.92 19.98,21.78 44.46,32.58 73.44,32.58 22.84,0 42.83,-6.72 60.06,-20.22 l -16.1,-20.66 c -11.35,7.76 -25.01,11.72 -40.9,11.72 -23.49,0 -41.67,-7.56 -54.45,-22.5 -12.87,-15.03 -19.35,-34.83 -19.35,-59.58 0,-22.28 5.49,-40.81 16.53,-55.62 l -19.6,-25.15 m 43.35,55.62 c -2.97,7.49 -4.46,16.13 -4.46,25.96 0,32.22 13.68,48.33 40.86,48.33 7.29,0 13.25,-1.53 17.9,-4.6 l -54.3,-69.69"
         id="path80" /></clipPath><linearGradient
       x1="0"
       y1="0"
       x2="1"
       y2="0"
       gradientUnits="userSpaceOnUse"
       gradientTransform="matrix(8000,-8000,-8000,-8000,0.00488281,8000)"
       spreadMethod="pad"
       id="linearGradient88"><stop
         style="stop-opacity:1;stop-color:#d6e7f4"
         offset="0"
         id="stop84" /><stop
         style="stop-opacity:1;stop-color:#a8cbe8"
         offset="1"
         id="stop86" /></linearGradient><clipPath
       clipPathUnits="userSpaceOnUse"
       id="clipPath522"><path
         d="m 4110,4211.67 c 0,-96.65 -78.35,-175 -175,-175 -96.65,0 -175,78.35 -175,175 0,96.65 78.35,175 175,175 96.65,0 175,-78.35 175,-175 z"
         id="path520" /></clipPath><linearGradient
       x1="0"
       y1="0"
       x2="1"
       y2="0"
       gradientUnits="userSpaceOnUse"
       gradientTransform="matrix(247.48,-247.48,-247.48,-247.48,3811.26,4335.4)"
       spreadMethod="pad"
       id="linearGradient528"><stop
         style="stop-opacity:1;stop-color:#d6e7f4"
         offset="0"
         id="stop524" /><stop
         style="stop-opacity:1;stop-color:#a8cbe8"
         offset="1"
         id="stop526" /></linearGradient><clipPath
       clipPathUnits="userSpaceOnUse"
       id="clipPath750"><path
         d="m 4258.22,4958.22 c 0,-81.86 -66.36,-148.22 -148.22,-148.22 -81.86,0 -148.22,66.36 -148.22,148.22 0,81.86 66.36,148.22 148.22,148.22 81.86,0 148.22,-66.36 148.22,-148.22 z"
         id="path748" /></clipPath><linearGradient
       x1="0"
       y1="0"
       x2="1"
       y2="0"
       gradientUnits="userSpaceOnUse"
       gradientTransform="matrix(209.612,-209.612,-209.612,-209.612,4005.2,5063.02)"
       spreadMethod="pad"
       id="linearGradient756"><stop
         style="stop-opacity:1;stop-color:#d6e7f4"
         offset="0"
         id="stop752" /><stop
         style="stop-opacity:1;stop-color:#a8cbe8"
         offset="1"
         id="stop754" /></linearGradient><clipPath
       clipPathUnits="userSpaceOnUse"
       id="clipPath978"><path
         d="m 4365.07,3636.67 c 0,-77.32 -62.69,-140 -140,-140 -77.33,0 -140,62.68 -140,140 0,77.31 62.67,140 140,140 77.31,0 140,-62.69 140,-140 z"
         id="path976" /></clipPath><linearGradient
       x1="0"
       y1="0"
       x2="1"
       y2="0"
       gradientUnits="userSpaceOnUse"
       gradientTransform="matrix(197.99,-197.99,-197.99,-197.99,4126.07,3735.66)"
       spreadMethod="pad"
       id="linearGradient984"><stop
         style="stop-opacity:1;stop-color:#d6e7f4"
         offset="0"
         id="stop980" /><stop
         style="stop-opacity:1;stop-color:#a8cbe8"
         offset="1"
         id="stop982" /></linearGradient><clipPath
       clipPathUnits="userSpaceOnUse"
       id="clipPath1206"><path
         d="m 3995,5416.67 c 0,-64.9 -52.61,-117.5 -117.5,-117.5 -64.89,0 -117.5,52.6 -117.5,117.5 0,64.89 52.61,117.5 117.5,117.5 64.89,0 117.5,-52.61 117.5,-117.5 z"
         id="path1204" /></clipPath><linearGradient
       x1="0"
       y1="0"
       x2="1"
       y2="0"
       gradientUnits="userSpaceOnUse"
       gradientTransform="matrix(166.17,-166.17,-166.17,-166.17,3794.41,5499.75)"
       spreadMethod="pad"
       id="linearGradient1212"><stop
         style="stop-opacity:1;stop-color:#d6e7f4"
         offset="0"
         id="stop1208" /><stop
         style="stop-opacity:1;stop-color:#a8cbe8"
         offset="1"
         id="stop1210" /></linearGradient><clipPath
       clipPathUnits="userSpaceOnUse"
       id="clipPath1434"><path
         d="m 4342.57,5725 c 0,-64.89 -52.61,-117.5 -117.5,-117.5 -64.89,0 -117.5,52.61 -117.5,117.5 0,64.89 52.61,117.5 117.5,117.5 64.89,0 117.5,-52.61 117.5,-117.5 z"
         id="path1432" /></clipPath><linearGradient
       x1="0"
       y1="0"
       x2="1"
       y2="0"
       gradientUnits="userSpaceOnUse"
       gradientTransform="matrix(166.163,-166.163,-166.163,-166.163,4141.99,5808.08)"
       spreadMethod="pad"
       id="linearGradient1440"><stop
         style="stop-opacity:1;stop-color:#d6e7f4"
         offset="0"
         id="stop1436" /><stop
         style="stop-opacity:1;stop-color:#a8cbe8"
         offset="1"
         id="stop1438" /></linearGradient><clipPath
       clipPathUnits="userSpaceOnUse"
       id="clipPath1662"><path
         d="m 3935,3178.33 c 0,-96.65 -78.35,-175 -175,-175 -96.65,0 -175,78.35 -175,175 0,96.65 78.35,175 175,175 96.65,0 175,-78.35 175,-175 z"
         id="path1660" /></clipPath><linearGradient
       x1="0"
       y1="0"
       x2="1"
       y2="0"
       gradientUnits="userSpaceOnUse"
       gradientTransform="matrix(247.487,-247.487,-247.487,-247.487,3636.26,3302.06)"
       spreadMethod="pad"
       id="linearGradient1668"><stop
         style="stop-opacity:1;stop-color:#d6e7f4"
         offset="0"
         id="stop1664" /><stop
         style="stop-opacity:1;stop-color:#a8cbe8"
         offset="1"
         id="stop1666" /></linearGradient><clipPath
       clipPathUnits="userSpaceOnUse"
       id="clipPath1890"><path
         d="m 4475,6590 c 0,-107.7 -87.3,-195 -195,-195 -107.7,0 -195,87.3 -195,195 0,107.7 87.3,195 195,195 107.7,0 195,-87.3 195,-195 z"
         id="path1888" /></clipPath><linearGradient
       x1="0"
       y1="0"
       x2="1"
       y2="0"
       gradientUnits="userSpaceOnUse"
       gradientTransform="matrix(275.772,-275.772,-275.772,-275.772,4142.12,6727.88)"
       spreadMethod="pad"
       id="linearGradient1896"><stop
         style="stop-opacity:1;stop-color:#d6e7f4"
         offset="0"
         id="stop1892" /><stop
         style="stop-opacity:1;stop-color:#a8cbe8"
         offset="1"
         id="stop1894" /></linearGradient><clipPath
       clipPathUnits="userSpaceOnUse"
       id="clipPath2118"><path
         d="m 3961.78,6882.5 c 0,-84.92 -68.84,-153.75 -153.75,-153.75 -84.91,0 -153.75,68.83 -153.75,153.75 0,84.91 68.84,153.75 153.75,153.75 84.91,0 153.75,-68.84 153.75,-153.75 z"
         id="path2116" /></clipPath><linearGradient
       x1="0"
       y1="0"
       x2="1"
       y2="0"
       gradientUnits="userSpaceOnUse"
       gradientTransform="matrix(217.435,-217.435,-217.435,-217.435,3699.32,6991.21)"
       spreadMethod="pad"
       id="linearGradient2124"><stop
         style="stop-opacity:1;stop-color:#d6e7f4"
         offset="0"
         id="stop2120" /><stop
         style="stop-opacity:1;stop-color:#a8cbe8"
         offset="1"
         id="stop2122" /></linearGradient><clipPath
       clipPathUnits="userSpaceOnUse"
       id="clipPath2346"><path
         d="m 4052.5,6318.75 c 0,-64.89 -52.61,-117.5 -117.5,-117.5 -64.89,0 -117.5,52.61 -117.5,117.5 0,64.89 52.61,117.5 117.5,117.5 64.89,0 117.5,-52.61 117.5,-117.5 z"
         id="path2344" /></clipPath><linearGradient
       x1="0"
       y1="0"
       x2="1"
       y2="0"
       gradientUnits="userSpaceOnUse"
       gradientTransform="matrix(166.17,-166.17,-166.17,-166.17,3851.92,6401.83)"
       spreadMethod="pad"
       id="linearGradient2352"><stop
         style="stop-opacity:1;stop-color:#d6e7f4"
         offset="0"
         id="stop2348" /><stop
         style="stop-opacity:1;stop-color:#a8cbe8"
         offset="1"
         id="stop2350" /></linearGradient><clipPath
       clipPathUnits="userSpaceOnUse"
       id="clipPath2574"><path
         d="m 5378.58,6774.38 c -4.41,0 -7.38,1.44 -8.82,4.23 -1.44,2.79 -2.16,6.93 -2.16,12.33 v 107.01 c 0,4.68 0.9,8.19 2.97,10.53 1.98,2.34 4.68,3.51 8.01,3.51 3.42,0 6.12,-1.17 8.28,-3.6 2.07,-2.43 3.15,-5.85 3.15,-10.35 v -2.97 c 4.5,5.76 9.09,9.99 13.86,12.69 4.86,2.7 10.35,4.05 16.47,4.05 7.29,0 14.04,-1.98 20.16,-5.94 6.12,-3.87 10.98,-9.63 14.58,-17.19 3.51,-7.65 5.31,-16.56 5.31,-26.91 0,-7.65 -0.99,-14.67 -3.06,-20.97 -2.07,-6.48 -4.86,-11.79 -8.46,-16.11 -3.6,-4.32 -7.92,-7.74 -12.78,-9.99 -4.95,-2.34 -10.17,-3.51 -15.75,-3.51 -6.84,0 -12.51,1.35 -17.19,4.23 -4.59,2.88 -9,7.02 -13.14,12.51 v -37.17 c 0,-10.89 -3.78,-16.38 -11.43,-16.38 m 35.91,119.07 c -6.57,0 -12.15,-2.79 -16.65,-8.1 -4.5,-5.49 -6.75,-13.32 -6.75,-23.85 0,-9.81 2.25,-17.55 6.75,-22.95 4.5,-5.49 9.99,-8.28 16.65,-8.28 3.87,0 7.56,1.17 10.98,3.6 3.33,2.43 6.03,6.03 8.01,10.71 2.07,4.86 3.06,10.62 3.06,17.37 0,6.57 -0.9,12.24 -2.88,16.83 -1.89,4.77 -4.5,8.37 -7.92,10.89 -3.42,2.52 -7.11,3.78 -11.25,3.78"
         id="path2572" /></clipPath><linearGradient
       x1="0"
       y1="0"
       x2="1"
       y2="0"
       gradientUnits="userSpaceOnUse"
       gradientTransform="matrix(8000,-8000,-8000,-8000,0.00488281,8000)"
       spreadMethod="pad"
       id="linearGradient2580"><stop
         style="stop-opacity:1;stop-color:#88929c"
         offset="0"
         id="stop2576" /><stop
         style="stop-opacity:1;stop-color:#6b8196"
         offset="1"
         id="stop2578" /></linearGradient><clipPath
       clipPathUnits="userSpaceOnUse"
       id="clipPath2590"><path
         d="m 5552.37,6811.19 c -3.24,0 -5.85,1.26 -8.01,3.69 -2.07,2.43 -3.15,5.85 -3.15,10.26 v 3.15 c -2.88,-3.69 -5.85,-6.84 -9,-9.36 -3.15,-2.61 -6.57,-4.5 -10.26,-5.67 -3.69,-1.26 -8.01,-1.89 -12.69,-1.89 -5.76,0 -10.89,1.26 -15.48,3.69 -4.5,2.52 -8.1,5.94 -10.53,10.26 -2.97,5.31 -4.5,12.87 -4.5,22.68 v 49.14 c 0,4.95 1.08,8.64 3.24,11.07 2.16,2.43 5.04,3.69 8.55,3.69 3.6,0 6.48,-1.26 8.73,-3.69 2.16,-2.52 3.24,-6.21 3.24,-11.07 v -39.69 c 0,-5.76 0.54,-10.53 1.35,-14.4 0.99,-3.96 2.7,-7.02 5.13,-9.27 2.34,-2.16 5.58,-3.24 9.72,-3.24 4.05,0 7.83,1.26 11.34,3.69 3.51,2.43 6.12,5.67 7.74,9.72 1.35,3.51 1.98,11.16 1.98,23.04 v 30.15 c 0,4.86 1.08,8.55 3.33,11.07 2.16,2.43 5.04,3.69 8.55,3.69 3.6,0 6.39,-1.26 8.55,-3.69 2.16,-2.43 3.24,-6.12 3.24,-11.07 v -71.82 c 0,-4.68 -1.08,-8.28 -3.15,-10.62 -1.98,-2.34 -4.68,-3.51 -7.92,-3.51"
         id="path2588" /></clipPath><linearGradient
       x1="0"
       y1="0"
       x2="1"
       y2="0"
       gradientUnits="userSpaceOnUse"
       gradientTransform="matrix(8000,-8000,-8000,-8000,0.00488281,8000)"
       spreadMethod="pad"
       id="linearGradient2596"><stop
         style="stop-opacity:1;stop-color:#88929c"
         offset="0"
         id="stop2592" /><stop
         style="stop-opacity:1;stop-color:#6b8196"
         offset="1"
         id="stop2594" /></linearGradient><clipPath
       clipPathUnits="userSpaceOnUse"
       id="clipPath2606"><path
         d="m 5639.58,6811.19 c -3.69,0 -7.11,0.45 -10.35,1.35 -3.24,0.9 -5.94,2.07 -8.19,3.6 -2.25,1.44 -4.23,2.97 -5.85,4.5 -1.53,1.62 -3.6,3.96 -6.21,7.11 v -2.43 c 0,-4.68 -1.17,-8.19 -3.24,-10.62 -2.16,-2.34 -4.95,-3.51 -8.19,-3.51 -3.42,0 -6.03,1.17 -8.1,3.51 -1.98,2.52 -2.97,5.94 -2.97,10.62 v 108.27 c 0,4.95 0.99,8.73 2.97,11.34 1.89,2.61 4.59,3.87 8.1,3.87 3.6,0 6.48,-1.26 8.37,-3.69 2.07,-2.43 3.06,-5.94 3.06,-10.44 v -37.89 c 4.41,4.86 9,8.55 13.59,11.16 4.68,2.61 10.44,3.87 17.28,3.87 7.83,0 14.76,-1.98 20.7,-5.85 5.94,-3.96 10.62,-9.63 13.86,-17.01 3.33,-7.38 4.95,-16.2 4.95,-26.37 0,-7.56 -0.9,-14.4 -2.79,-20.7 -1.8,-6.21 -4.41,-11.61 -7.92,-16.29 -3.51,-4.59 -7.74,-8.1 -12.69,-10.71 -4.95,-2.43 -10.44,-3.69 -16.38,-3.69 m -6.03,82.26 c -4.59,0 -8.55,-1.35 -12.06,-3.87 -3.6,-2.61 -6.3,-6.3 -8.37,-11.25 -2.07,-4.77 -3.06,-10.62 -3.06,-17.37 0,-9.81 2.16,-17.37 6.48,-22.68 4.32,-5.31 9.99,-8.01 17.01,-8.01 6.03,0 11.16,2.7 15.48,8.19 4.32,5.4 6.48,13.14 6.48,23.22 0,6.57 -0.9,12.24 -2.7,16.92 -1.8,4.77 -4.41,8.37 -7.65,10.98 -3.33,2.52 -7.2,3.87 -11.61,3.87"
         id="path2604" /></clipPath><linearGradient
       x1="0"
       y1="0"
       x2="1"
       y2="0"
       gradientUnits="userSpaceOnUse"
       gradientTransform="matrix(8000,-8000,-8000,-8000,0.00488281,8000)"
       spreadMethod="pad"
       id="linearGradient2612"><stop
         style="stop-opacity:1;stop-color:#88929c"
         offset="0"
         id="stop2608" /><stop
         style="stop-opacity:1;stop-color:#6b8196"
         offset="1"
         id="stop2610" /></linearGradient><clipPath
       clipPathUnits="userSpaceOnUse"
       id="clipPath2622"><path
         d="m 5707.8,6811.19 c -3.42,0 -6.3,1.26 -8.46,3.87 -2.16,2.61 -3.24,6.3 -3.24,11.16 v 107.55 c 0,4.95 0.99,8.64 3.15,11.25 2.16,2.52 4.95,3.78 8.55,3.78 3.6,0 6.48,-1.26 8.73,-3.78 2.16,-2.52 3.33,-6.3 3.33,-11.25 v -107.55 c 0,-4.95 -1.17,-8.82 -3.42,-11.34 -2.16,-2.43 -5.13,-3.69 -8.64,-3.69"
         id="path2620" /></clipPath><linearGradient
       x1="0"
       y1="0"
       x2="1"
       y2="0"
       gradientUnits="userSpaceOnUse"
       gradientTransform="matrix(8000,-8000,-8000,-8000,0.00488281,8000)"
       spreadMethod="pad"
       id="linearGradient2628"><stop
         style="stop-opacity:1;stop-color:#88929c"
         offset="0"
         id="stop2624" /><stop
         style="stop-opacity:1;stop-color:#6b8196"
         offset="1"
         id="stop2626" /></linearGradient><clipPath
       clipPathUnits="userSpaceOnUse"
       id="clipPath2638"><path
         d="m 5756.13,6811.19 c -3.51,0 -6.3,1.26 -8.55,3.87 -2.16,2.61 -3.24,6.3 -3.24,11.16 v 70.92 c 0,4.86 1.08,8.55 3.24,11.07 2.25,2.43 5.04,3.69 8.55,3.69 3.42,0 6.3,-1.26 8.64,-3.69 2.16,-2.52 3.33,-5.94 3.33,-10.35 v -71.64 c 0,-4.95 -1.17,-8.73 -3.33,-11.25 -2.34,-2.52 -5.22,-3.78 -8.64,-3.78 m 0.18,112.32 c -3.24,0 -6.12,0.99 -8.46,3.15 -2.34,2.16 -3.51,5.13 -3.51,9 0,3.51 1.17,6.39 3.6,8.73 2.43,2.25 5.22,3.33 8.37,3.33 3.06,0 5.85,-0.99 8.19,-3.06 2.43,-2.07 3.6,-5.04 3.6,-9 0,-3.78 -1.17,-6.75 -3.51,-8.91 -2.34,-2.16 -5.04,-3.24 -8.28,-3.24"
         id="path2636" /></clipPath><linearGradient
       x1="0"
       y1="0"
       x2="1"
       y2="0"
       gradientUnits="userSpaceOnUse"
       gradientTransform="matrix(8000,-8000,-8000,-8000,0.00488281,8000)"
       spreadMethod="pad"
       id="linearGradient2644"><stop
         style="stop-opacity:1;stop-color:#88929c"
         offset="0"
         id="stop2640" /><stop
         style="stop-opacity:1;stop-color:#6b8196"
         offset="1"
         id="stop2642" /></linearGradient><clipPath
       clipPathUnits="userSpaceOnUse"
       id="clipPath2654"><path
         d="m 5834.61,6811.37 c -14.67,0 -26.1,4.5 -34.38,13.41 -8.19,8.91 -12.33,20.88 -12.33,35.82 0,10.17 1.89,19.26 5.67,27 3.78,7.74 9.27,13.86 16.38,18.09 7.11,4.32 15.66,6.39 25.47,6.39 6.21,0 11.88,-0.9 17.01,-2.79 5.13,-1.89 9.45,-4.32 13.05,-7.2 3.51,-2.97 6.3,-6.21 8.19,-9.54 1.89,-3.33 2.79,-6.48 2.79,-9.36 0,-2.97 -1.08,-5.49 -3.15,-7.56 -2.16,-2.07 -4.68,-3.06 -7.74,-3.06 -1.98,0 -3.6,0.54 -4.86,1.62 -1.35,0.99 -2.79,2.7 -4.41,5.04 -2.97,4.59 -5.94,8.1 -9.09,10.44 -3.24,2.25 -7.2,3.51 -12.06,3.51 -7.02,0 -12.69,-2.97 -17.01,-8.64 -4.23,-5.76 -6.39,-13.59 -6.39,-23.49 0,-4.68 0.54,-9 1.62,-12.87 1.17,-3.96 2.7,-7.2 4.77,-9.99 2.16,-2.79 4.68,-4.86 7.65,-6.3 2.88,-1.44 6.21,-2.16 9.63,-2.16 4.86,0 8.91,1.17 12.33,3.51 3.33,2.34 6.39,5.85 9,10.53 1.44,2.79 2.97,4.95 4.68,6.57 1.71,1.53 3.78,2.34 6.21,2.34 2.88,0 5.22,-1.17 7.2,-3.42 1.89,-2.34 2.88,-4.77 2.88,-7.38 0,-3.15 -0.9,-6.39 -2.7,-9.9 -1.8,-3.51 -4.41,-6.84 -8.1,-9.99 -3.6,-3.24 -8.19,-5.76 -13.68,-7.74 -5.49,-1.89 -11.7,-2.88 -18.63,-2.88"
         id="path2652" /></clipPath><linearGradient
       x1="0"
       y1="0"
       x2="1"
       y2="0"
       gradientUnits="userSpaceOnUse"
       gradientTransform="matrix(8000,-8000,-8000,-8000,0.00488281,8000)"
       spreadMethod="pad"
       id="linearGradient2660"><stop
         style="stop-opacity:1;stop-color:#88929c"
         offset="0"
         id="stop2656" /><stop
         style="stop-opacity:1;stop-color:#6b8196"
         offset="1"
         id="stop2658" /></linearGradient><clipPath
       clipPathUnits="userSpaceOnUse"
       id="clipPath2670"><path
         d="m 5974.65,6811.19 c -3.15,0 -5.85,1.17 -8.01,3.69 -2.16,2.43 -3.15,5.85 -3.15,10.44 v 2.43 c -3.24,-3.78 -6.39,-6.93 -9.45,-9.27 -3.06,-2.43 -6.48,-4.23 -10.08,-5.49 -3.6,-1.17 -7.56,-1.8 -11.88,-1.8 -5.67,0 -10.98,1.26 -15.75,3.69 -4.86,2.61 -9.09,6.12 -12.6,10.8 -3.51,4.68 -6.21,10.17 -8.01,16.47 -1.89,6.3 -2.79,13.05 -2.79,20.43 0,15.48 3.6,27.63 10.89,36.27 7.29,8.64 16.83,12.96 28.62,12.96 6.84,0 12.6,-1.26 17.28,-3.78 4.68,-2.34 9.27,-6.12 13.77,-11.25 v 36.54 c 0,5.13 0.99,9 2.88,11.61 1.98,2.61 4.68,3.87 8.28,3.87 3.6,0 6.39,-1.17 8.37,-3.6 1.89,-2.34 2.88,-5.94 2.88,-10.53 v -109.35 c 0,-4.68 -0.99,-8.28 -3.15,-10.62 -2.07,-2.34 -4.77,-3.51 -8.1,-3.51 m -35.46,82.26 c -4.32,0 -8.19,-1.35 -11.61,-3.87 -3.42,-2.61 -6.12,-6.3 -7.92,-11.16 -1.89,-4.77 -2.88,-10.35 -2.88,-16.74 0,-6.66 0.99,-12.42 3.06,-17.1 1.98,-4.77 4.68,-8.28 8.1,-10.71 3.51,-2.43 7.38,-3.6 11.43,-3.6 4.23,0 8.01,1.17 11.43,3.42 3.51,2.25 6.21,5.76 8.28,10.44 2.07,4.68 3.06,10.53 3.06,17.55 0,6.66 -0.99,12.33 -3.06,17.1 -2.07,4.77 -4.86,8.37 -8.37,10.89 -3.51,2.52 -7.29,3.78 -11.52,3.78"
         id="path2668" /></clipPath><linearGradient
       x1="0"
       y1="0"
       x2="1"
       y2="0"
       gradientUnits="userSpaceOnUse"
       gradientTransform="matrix(8000,-8000,-8000,-8000,0.00488281,8000)"
       spreadMethod="pad"
       id="linearGradient2676"><stop
         style="stop-opacity:1;stop-color:#88929c"
         offset="0"
         id="stop2672" /><stop
         style="stop-opacity:1;stop-color:#6b8196"
         offset="1"
         id="stop2674" /></linearGradient><clipPath
       clipPathUnits="userSpaceOnUse"
       id="clipPath2686"><path
         d="m 6051.24,6811.19 c -7.2,0 -13.68,1.17 -19.35,3.6 -5.76,2.43 -10.8,5.85 -15.03,10.35 -4.14,4.59 -7.29,9.9 -9.54,16.02 -2.16,6.12 -3.24,12.87 -3.24,20.34 0,7.56 1.17,14.4 3.33,20.61 2.16,6.21 5.31,11.52 9.45,16.02 4.14,4.41 9.09,7.83 15.03,10.17 5.85,2.43 12.24,3.6 19.35,3.6 7.2,0 13.77,-1.17 19.53,-3.6 5.85,-2.43 10.89,-5.94 15.12,-10.35 4.14,-4.5 7.29,-9.9 9.45,-16.02 2.25,-6.21 3.33,-12.96 3.33,-20.43 0,-7.38 -1.17,-14.13 -3.33,-20.43 -2.25,-6.21 -5.4,-11.52 -9.54,-16.02 -4.23,-4.5 -9.18,-7.83 -15.03,-10.35 -5.76,-2.34 -12.33,-3.51 -19.53,-3.51 m 0,82.35 c -4.68,0 -8.73,-1.26 -12.24,-3.78 -3.6,-2.52 -6.3,-6.21 -8.19,-11.16 -1.89,-4.86 -2.88,-10.53 -2.88,-17.1 0,-6.48 0.99,-12.15 2.79,-16.92 1.89,-4.86 4.59,-8.55 8.1,-11.16 3.51,-2.61 7.65,-3.87 12.42,-3.87 7.2,0 12.87,2.88 17.19,8.46 4.23,5.67 6.39,13.5 6.39,23.49 0,10.08 -2.16,18 -6.39,23.58 -4.32,5.58 -9.99,8.46 -17.19,8.46"
         id="path2684" /></clipPath><linearGradient
       x1="0"
       y1="0"
       x2="1"
       y2="0"
       gradientUnits="userSpaceOnUse"
       gradientTransform="matrix(8000,-8000,-8000,-8000,0.00488281,8000)"
       spreadMethod="pad"
       id="linearGradient2692"><stop
         style="stop-opacity:1;stop-color:#88929c"
         offset="0"
         id="stop2688" /><stop
         style="stop-opacity:1;stop-color:#6b8196"
         offset="1"
         id="stop2690" /></linearGradient><clipPath
       clipPathUnits="userSpaceOnUse"
       id="clipPath2702"><path
         d="m 6239.52,6811.19 c -3.6,0 -6.48,1.26 -8.82,3.96 -2.25,2.61 -3.42,6.48 -3.42,11.7 v 41.67 c 0,5.31 -0.27,9.54 -0.63,12.78 -0.45,3.24 -1.62,5.94 -3.6,8.1 -1.89,2.16 -4.77,3.33 -8.64,3.33 -3.15,0 -6.12,-0.99 -8.91,-2.88 -2.88,-1.98 -4.95,-4.59 -6.57,-7.92 -1.8,-4.14 -2.61,-11.52 -2.61,-22.23 v -32.85 c 0,-5.22 -1.17,-9.18 -3.42,-11.79 -2.25,-2.61 -5.22,-3.87 -9,-3.87 -3.51,0 -6.48,1.26 -8.64,3.87 -2.25,2.61 -3.33,6.57 -3.33,11.79 v 39.51 c 0,6.21 -0.27,10.98 -0.63,14.49 -0.45,3.42 -1.53,6.3 -3.33,8.55 -1.8,2.16 -4.68,3.33 -8.55,3.33 -7.74,0 -12.78,-2.79 -15.3,-8.46 -2.52,-5.49 -3.69,-13.5 -3.69,-23.94 v -33.48 c 0,-5.22 -1.08,-9.09 -3.33,-11.7 -2.25,-2.7 -5.22,-3.96 -8.82,-3.96 -3.6,0 -6.57,1.26 -8.82,3.96 -2.34,2.61 -3.42,6.48 -3.42,11.61 v 70.92 c 0,4.68 0.99,8.28 2.97,10.62 2.16,2.43 4.86,3.69 8.19,3.69 3.24,0 5.94,-1.17 8.1,-3.42 2.25,-2.25 3.33,-5.4 3.33,-9.36 v -2.34 c 4.05,5.13 8.46,8.91 13.14,11.34 4.68,2.34 9.99,3.6 15.66,3.6 6.03,0 11.07,-1.26 15.39,-3.78 4.32,-2.43 7.83,-6.21 10.62,-11.16 3.96,5.04 8.28,8.82 12.87,11.25 4.59,2.43 9.63,3.69 15.21,3.69 6.57,0 12.06,-1.26 16.83,-3.96 4.68,-2.7 8.19,-6.48 10.53,-11.52 1.98,-4.41 2.97,-11.52 2.97,-21.15 v -48.33 c 0,-5.22 -1.08,-9.18 -3.33,-11.79 -2.34,-2.61 -5.31,-3.87 -9,-3.87"
         id="path2700" /></clipPath><linearGradient
       x1="0"
       y1="0"
       x2="1"
       y2="0"
       gradientUnits="userSpaceOnUse"
       gradientTransform="matrix(8000,-8000,-8000,-8000,0.00488281,8000)"
       spreadMethod="pad"
       id="linearGradient2708"><stop
         style="stop-opacity:1;stop-color:#88929c"
         offset="0"
         id="stop2704" /><stop
         style="stop-opacity:1;stop-color:#6b8196"
         offset="1"
         id="stop2706" /></linearGradient><clipPath
       clipPathUnits="userSpaceOnUse"
       id="clipPath2718"><path
         d="m 6349.77,6811.19 c -2.43,0 -4.86,1.17 -7.29,3.51 -2.34,2.43 -4.86,5.94 -7.47,10.44 -5.76,-4.68 -11.34,-8.19 -16.74,-10.44 -5.31,-2.34 -11.34,-3.51 -18,-3.51 -6.12,0 -11.43,1.26 -16.11,3.69 -4.59,2.52 -8.1,5.94 -10.62,10.26 -2.52,4.32 -3.78,9 -3.78,14.04 0,6.75 2.16,12.51 6.21,17.28 4.14,4.77 9.72,8.01 16.92,9.63 1.53,0.36 5.31,1.17 11.25,2.43 6.03,1.26 11.07,2.43 15.39,3.51 4.23,0.99 8.91,2.34 13.86,3.78 -0.27,6.57 -1.53,11.43 -3.78,14.49 -2.25,3.06 -6.93,4.59 -13.86,4.59 -6.03,0 -10.62,-0.9 -13.68,-2.7 -3.06,-1.71 -5.67,-4.32 -7.74,-7.92 -2.25,-3.51 -3.78,-5.76 -4.68,-6.93 -0.9,-1.08 -2.79,-1.62 -5.76,-1.62 -2.7,0 -4.95,0.9 -6.93,2.61 -1.89,1.8 -2.88,4.05 -2.88,6.93 0,4.32 1.44,8.55 4.41,12.69 2.97,4.14 7.56,7.47 13.86,10.17 6.21,2.7 14.04,3.96 23.4,3.96 10.44,0 18.63,-1.26 24.66,-3.87 5.94,-2.52 10.17,-6.57 12.6,-12.15 2.43,-5.58 3.69,-12.96 3.69,-22.14 0,-5.85 0,-10.8 0,-14.85 -0.09,-4.05 -0.09,-8.55 -0.18,-13.5 0,-4.68 0.72,-9.54 2.25,-14.58 1.44,-5.04 2.16,-8.28 2.16,-9.72 0,-2.52 -1.17,-4.86 -3.42,-7.02 -2.25,-2.07 -4.86,-3.06 -7.74,-3.06 m -16.38,49.86 c -3.51,-1.35 -8.55,-2.79 -15.21,-4.23 -6.57,-1.53 -11.25,-2.61 -13.77,-3.33 -2.52,-0.72 -4.95,-2.07 -7.29,-4.05 -2.34,-2.07 -3.51,-4.86 -3.51,-8.55 0,-3.78 1.35,-6.93 4.14,-9.54 2.7,-2.7 6.3,-3.96 10.71,-3.96 4.68,0 9,1.08 12.96,3.24 3.96,2.07 6.93,4.95 8.73,8.28 2.16,3.78 3.24,9.9 3.24,18.63 v 3.51"
         id="path2716" /></clipPath><linearGradient
       x1="0"
       y1="0"
       x2="1"
       y2="0"
       gradientUnits="userSpaceOnUse"
       gradientTransform="matrix(8000,-8000,-8000,-8000,0.00488281,8000)"
       spreadMethod="pad"
       id="linearGradient2724"><stop
         style="stop-opacity:1;stop-color:#88929c"
         offset="0"
         id="stop2720" /><stop
         style="stop-opacity:1;stop-color:#6b8196"
         offset="1"
         id="stop2722" /></linearGradient><clipPath
       clipPathUnits="userSpaceOnUse"
       id="clipPath2734"><path
         d="m 6392.61,6811.19 c -3.51,0 -6.39,1.26 -8.46,3.87 -2.25,2.61 -3.33,6.3 -3.33,11.16 v 70.92 c 0,4.86 1.08,8.55 3.33,11.07 2.07,2.43 4.95,3.69 8.46,3.69 3.51,0 6.3,-1.26 8.55,-3.69 2.25,-2.52 3.42,-5.94 3.42,-10.35 v -71.64 c 0,-4.95 -1.17,-8.73 -3.42,-11.25 -2.25,-2.52 -5.04,-3.78 -8.55,-3.78 m 0.27,112.32 c -3.33,0 -6.12,0.99 -8.46,3.15 -2.34,2.16 -3.6,5.13 -3.6,9 0,3.51 1.26,6.39 3.69,8.73 2.34,2.25 5.13,3.33 8.37,3.33 3.06,0 5.76,-0.99 8.19,-3.06 2.34,-2.07 3.51,-5.04 3.51,-9 0,-3.78 -1.17,-6.75 -3.42,-8.91 -2.34,-2.16 -5.13,-3.24 -8.28,-3.24"
         id="path2732" /></clipPath><linearGradient
       x1="0"
       y1="0"
       x2="1"
       y2="0"
       gradientUnits="userSpaceOnUse"
       gradientTransform="matrix(8000,-8000,-8000,-8000,0.00488281,8000)"
       spreadMethod="pad"
       id="linearGradient2740"><stop
         style="stop-opacity:1;stop-color:#88929c"
         offset="0"
         id="stop2736" /><stop
         style="stop-opacity:1;stop-color:#6b8196"
         offset="1"
         id="stop2738" /></linearGradient><clipPath
       clipPathUnits="userSpaceOnUse"
       id="clipPath2750"><path
         d="m 6501.33,6811.19 c -3.51,0 -6.39,1.26 -8.55,3.87 -2.25,2.61 -3.33,6.3 -3.33,11.16 v 41.31 c 0,8.19 -1.08,14.4 -3.24,18.72 -2.25,4.32 -6.57,6.57 -13.05,6.57 -4.23,0 -8.1,-1.35 -11.61,-4.05 -3.42,-2.52 -6.03,-6.21 -7.65,-10.8 -1.08,-3.69 -1.71,-10.53 -1.71,-20.7 v -31.05 c 0,-4.95 -1.17,-8.82 -3.33,-11.34 -2.25,-2.43 -5.13,-3.69 -8.64,-3.69 -3.42,0 -6.3,1.26 -8.46,3.87 -2.25,2.61 -3.33,6.3 -3.33,11.16 v 71.64 c 0,4.68 0.99,8.19 2.97,10.53 1.98,2.34 4.68,3.51 8.1,3.51 2.07,0 3.96,-0.54 5.58,-1.53 1.8,-0.99 3.06,-2.61 4.05,-4.59 1.08,-2.07 1.62,-4.59 1.62,-7.56 v -2.97 c 4.14,5.67 8.73,9.9 13.59,12.6 5.04,2.7 10.71,4.05 17.19,4.05 6.21,0 11.79,-1.35 16.74,-4.32 4.95,-2.79 8.64,-6.75 11.07,-11.97 1.53,-3.06 2.52,-6.39 3.06,-9.81 0.36,-3.51 0.72,-8.01 0.72,-13.41 v -46.17 c 0,-4.95 -1.17,-8.73 -3.33,-11.25 -2.16,-2.52 -5.04,-3.78 -8.46,-3.78"
         id="path2748" /></clipPath><linearGradient
       x1="0"
       y1="0"
       x2="1"
       y2="0"
       gradientUnits="userSpaceOnUse"
       gradientTransform="matrix(8000,-8000,-8000,-8000,0.00488281,8000)"
       spreadMethod="pad"
       id="linearGradient2756"><stop
         style="stop-opacity:1;stop-color:#88929c"
         offset="0"
         id="stop2752" /><stop
         style="stop-opacity:1;stop-color:#6b8196"
         offset="1"
         id="stop2754" /></linearGradient><clipPath
       clipPathUnits="userSpaceOnUse"
       id="clipPath2766"><path
         d="m 6570.36,6811.19 c -3.33,0 -6.03,0.81 -8.01,2.34 -2.07,1.62 -3.51,3.33 -4.5,5.31 -0.9,1.89 -2.52,5.67 -4.77,11.34 l -22.68,58.32 c -0.54,1.44 -1.08,2.88 -1.62,4.32 -0.54,1.44 -0.99,2.97 -1.35,4.5 -0.36,1.53 -0.54,2.79 -0.54,3.87 0,1.71 0.45,3.42 1.44,5.04 0.99,1.71 2.34,3.06 4.14,4.14 1.71,0.99 3.6,1.53 5.67,1.53 3.87,0 6.57,-1.17 8.1,-3.6 1.44,-2.34 3.15,-6.21 4.95,-11.79 l 19.17,-56.25 20.7,58.68 c 1.62,4.77 3.24,8.01 4.86,9.99 1.53,1.98 3.87,2.97 7.11,2.97 2.97,0 5.58,-1.08 7.74,-3.15 2.07,-2.16 3.15,-4.59 3.15,-7.38 0,-1.08 -0.27,-2.34 -0.63,-3.78 -0.36,-1.44 -0.72,-2.88 -1.26,-4.14 -0.54,-1.26 -0.99,-2.7 -1.71,-4.32 l -22.77,-58.95 c -0.63,-1.71 -1.53,-3.87 -2.52,-6.48 -0.99,-2.61 -2.16,-4.77 -3.42,-6.75 -1.26,-1.8 -2.79,-3.24 -4.59,-4.23 -1.8,-0.99 -4.05,-1.53 -6.66,-1.53"
         id="path2764" /></clipPath><linearGradient
       x1="0"
       y1="0"
       x2="1"
       y2="0"
       gradientUnits="userSpaceOnUse"
       gradientTransform="matrix(8000,-8000,-8000,-8000,0.00488281,8000)"
       spreadMethod="pad"
       id="linearGradient2772"><stop
         style="stop-opacity:1;stop-color:#88929c"
         offset="0"
         id="stop2768" /><stop
         style="stop-opacity:1;stop-color:#6b8196"
         offset="1"
         id="stop2770" /></linearGradient><clipPath
       clipPathUnits="userSpaceOnUse"
       id="clipPath2782"><path
         d="m 6672.33,6811.19 c -15.3,0 -27.18,4.5 -35.55,13.59 -8.46,9.09 -12.69,21.42 -12.69,36.9 0,7.38 1.08,14.13 3.15,20.43 2.07,6.21 5.04,11.61 9.09,16.11 3.96,4.5 8.91,7.92 14.76,10.26 5.85,2.43 12.33,3.6 19.53,3.6 9.18,0 17.19,-1.98 23.85,-6.12 6.66,-4.05 11.61,-9.36 14.94,-15.75 3.24,-6.57 4.95,-13.14 4.95,-19.89 0,-6.21 -1.71,-10.26 -5.13,-12.06 -3.51,-1.89 -8.28,-2.79 -14.49,-2.79 h -46.44 c 0,-5.67 1.17,-10.62 3.24,-14.94 2.16,-4.23 4.95,-7.47 8.46,-9.72 3.51,-2.16 7.38,-3.24 11.61,-3.24 2.88,0 5.49,0.36 7.83,1.08 2.34,0.72 4.59,1.8 6.84,3.24 2.16,1.53 4.14,3.06 6.03,4.77 1.8,1.71 4.32,3.96 7.2,6.93 1.26,1.08 2.97,1.62 5.22,1.62 2.52,0 4.41,-0.63 5.94,-2.07 1.53,-1.44 2.25,-3.33 2.25,-5.94 0,-2.16 -0.81,-4.86 -2.52,-7.83 -1.71,-2.97 -4.14,-5.85 -7.65,-8.64 -3.33,-2.79 -7.65,-5.04 -12.78,-6.84 -5.04,-1.8 -10.98,-2.7 -17.64,-2.7 m -2.52,83.7 c -5.94,0 -10.8,-2.16 -14.58,-6.39 -3.78,-4.32 -6.03,-10.62 -6.93,-18.9 h 43.02 c -0.54,8.46 -2.7,14.76 -6.48,18.99 -3.87,4.14 -8.82,6.3 -15.03,6.3"
         id="path2780" /></clipPath><linearGradient
       x1="0"
       y1="0"
       x2="1"
       y2="0"
       gradientUnits="userSpaceOnUse"
       gradientTransform="matrix(8000,-8000,-8000,-8000,0.00488281,8000)"
       spreadMethod="pad"
       id="linearGradient2788"><stop
         style="stop-opacity:1;stop-color:#88929c"
         offset="0"
         id="stop2784" /><stop
         style="stop-opacity:1;stop-color:#6b8196"
         offset="1"
         id="stop2786" /></linearGradient><clipPath
       clipPathUnits="userSpaceOnUse"
       id="clipPath2798"><path
         d="m 6776.46,6811.37 c -14.67,0 -26.19,4.5 -34.38,13.41 -8.19,8.91 -12.33,20.88 -12.33,35.82 0,10.17 1.8,19.26 5.67,27 3.78,7.74 9.18,13.86 16.29,18.09 7.11,4.32 15.66,6.39 25.56,6.39 6.21,0 11.79,-0.9 17.01,-2.79 5.13,-1.89 9.36,-4.32 13.05,-7.2 3.51,-2.97 6.21,-6.21 8.19,-9.54 1.8,-3.33 2.79,-6.48 2.79,-9.36 0,-2.97 -1.08,-5.49 -3.24,-7.56 -2.07,-2.07 -4.68,-3.06 -7.65,-3.06 -1.98,0 -3.6,0.54 -4.86,1.62 -1.35,0.99 -2.79,2.7 -4.5,5.04 -2.88,4.59 -5.85,8.1 -9.09,10.44 -3.15,2.25 -7.11,3.51 -12.06,3.51 -6.93,0 -12.6,-2.97 -16.92,-8.64 -4.32,-5.76 -6.39,-13.59 -6.39,-23.49 0,-4.68 0.54,-9 1.62,-12.87 1.08,-3.96 2.7,-7.2 4.77,-9.99 2.07,-2.79 4.68,-4.86 7.56,-6.3 2.97,-1.44 6.21,-2.16 9.72,-2.16 4.77,0 8.91,1.17 12.24,3.51 3.42,2.34 6.48,5.85 9.09,10.53 1.44,2.79 2.97,4.95 4.68,6.57 1.62,1.53 3.69,2.34 6.12,2.34 2.88,0 5.31,-1.17 7.2,-3.42 1.98,-2.34 2.88,-4.77 2.88,-7.38 0,-3.15 -0.81,-6.39 -2.61,-9.9 -1.8,-3.51 -4.5,-6.84 -8.1,-9.99 -3.6,-3.24 -8.19,-5.76 -13.77,-7.74 -5.49,-1.89 -11.7,-2.88 -18.54,-2.88"
         id="path2796" /></clipPath><linearGradient
       x1="0"
       y1="0"
       x2="1"
       y2="0"
       gradientUnits="userSpaceOnUse"
       gradientTransform="matrix(8000,-8000,-8000,-8000,0.00488281,8000)"
       spreadMethod="pad"
       id="linearGradient2804"><stop
         style="stop-opacity:1;stop-color:#88929c"
         offset="0"
         id="stop2800" /><stop
         style="stop-opacity:1;stop-color:#6b8196"
         offset="1"
         id="stop2802" /></linearGradient><clipPath
       clipPathUnits="userSpaceOnUse"
       id="clipPath2814"><path
         d="m 6870.42,6811.19 c -7.47,0 -13.14,1.26 -16.92,3.87 -3.78,2.61 -6.39,6.21 -7.47,10.89 -1.26,4.59 -1.8,10.71 -1.8,18.36 v 47.61 h -3.24 c -3.33,0 -5.94,0.9 -7.74,2.61 -1.8,1.62 -2.7,3.78 -2.7,6.39 0,2.61 0.9,4.77 2.79,6.39 1.89,1.71 4.68,2.52 8.19,2.52 h 2.7 v 14.94 c 0,3.96 0.09,7.11 0.27,9.36 0.18,2.25 0.72,4.14 1.71,5.85 0.9,1.62 2.25,3.06 3.96,4.14 1.71,0.99 3.69,1.53 5.85,1.53 2.97,0 5.76,-1.17 8.19,-3.51 1.53,-1.62 2.61,-3.51 3.06,-5.76 0.45,-2.25 0.63,-5.49 0.63,-9.72 v -16.83 h 8.73 c 3.33,0 5.94,-0.81 7.74,-2.52 1.71,-1.62 2.61,-3.78 2.61,-6.39 0,-3.33 -1.26,-5.67 -3.78,-7.02 -2.52,-1.26 -6.12,-1.98 -10.89,-1.98 h -4.41 v -45.63 c 0,-3.87 0.18,-6.84 0.36,-8.91 0.36,-2.16 1.08,-3.87 2.16,-5.13 1.08,-1.26 2.97,-1.98 5.49,-1.98 1.44,0 3.33,0.27 5.67,0.81 2.34,0.54 4.23,0.72 5.58,0.72 1.89,0 3.69,-0.81 5.13,-2.34 1.53,-1.62 2.34,-3.6 2.34,-5.94 0,-3.96 -2.07,-7.02 -6.21,-9.18 -4.23,-2.16 -10.26,-3.15 -18,-3.15"
         id="path2812" /></clipPath><linearGradient
       x1="0"
       y1="0"
       x2="1"
       y2="0"
       gradientUnits="userSpaceOnUse"
       gradientTransform="matrix(8000,-8000,-8000,-8000,0.00488281,8000)"
       spreadMethod="pad"
       id="linearGradient2820"><stop
         style="stop-opacity:1;stop-color:#88929c"
         offset="0"
         id="stop2816" /><stop
         style="stop-opacity:1;stop-color:#6b8196"
         offset="1"
         id="stop2818" /></linearGradient><clipPath
       clipPathUnits="userSpaceOnUse"
       id="clipPath2830"><path
         d="m 6944.76,6811.19 c -7.2,0 -13.68,1.17 -19.44,3.6 -5.67,2.43 -10.71,5.85 -14.85,10.35 -4.23,4.59 -7.38,9.9 -9.54,16.02 -2.16,6.12 -3.24,12.87 -3.24,20.34 0,7.56 1.08,14.4 3.24,20.61 2.25,6.21 5.31,11.52 9.45,16.02 4.14,4.41 9.18,7.83 14.94,10.17 5.94,2.43 12.42,3.6 19.44,3.6 7.2,0 13.68,-1.17 19.62,-3.6 5.85,-2.43 10.8,-5.94 15.03,-10.35 4.14,-4.5 7.38,-9.9 9.54,-16.02 2.16,-6.21 3.24,-12.96 3.24,-20.43 0,-7.38 -1.08,-14.13 -3.33,-20.43 -2.16,-6.21 -5.4,-11.52 -9.54,-16.02 -4.23,-4.5 -9.18,-7.83 -14.94,-10.35 -5.85,-2.34 -12.33,-3.51 -19.62,-3.51 m 0,82.35 c -4.59,0 -8.73,-1.26 -12.24,-3.78 -3.6,-2.52 -6.3,-6.21 -8.19,-11.16 -1.89,-4.86 -2.88,-10.53 -2.88,-17.1 0,-6.48 0.99,-12.15 2.88,-16.92 1.89,-4.86 4.5,-8.55 8.01,-11.16 3.51,-2.61 7.65,-3.87 12.42,-3.87 7.2,0 12.87,2.88 17.19,8.46 4.23,5.67 6.39,13.5 6.39,23.49 0,10.08 -2.16,18 -6.39,23.58 -4.32,5.58 -9.99,8.46 -17.19,8.46"
         id="path2828" /></clipPath><linearGradient
       x1="0"
       y1="0"
       x2="1"
       y2="0"
       gradientUnits="userSpaceOnUse"
       gradientTransform="matrix(8000,-8000,-8000,-8000,0.00488281,8000)"
       spreadMethod="pad"
       id="linearGradient2836"><stop
         style="stop-opacity:1;stop-color:#88929c"
         offset="0"
         id="stop2832" /><stop
         style="stop-opacity:1;stop-color:#6b8196"
         offset="1"
         id="stop2834" /></linearGradient><clipPath
       clipPathUnits="userSpaceOnUse"
       id="clipPath2846"><path
         d="m 7022.43,6811.19 c -3.42,0 -6.21,1.26 -8.37,3.78 -2.25,2.52 -3.33,6.3 -3.33,11.25 v 69.03 c 0,11.16 3.87,16.65 11.61,16.65 3.87,0 6.75,-1.35 8.46,-3.87 1.71,-2.61 2.7,-6.48 2.88,-11.52 2.88,5.04 5.76,8.91 8.73,11.52 3.06,2.52 7.02,3.87 11.97,3.87 5.04,0 9.81,-1.35 14.58,-3.87 4.68,-2.61 7.02,-6.03 7.02,-10.35 0,-3.06 -0.99,-5.58 -3.06,-7.47 -1.89,-1.98 -4.14,-2.97 -6.48,-2.97 -0.81,0 -2.97,0.54 -6.3,1.71 -3.33,1.08 -6.3,1.62 -8.82,1.62 -3.42,0 -6.3,-0.9 -8.46,-2.88 -2.25,-1.89 -3.96,-4.68 -5.13,-8.46 -1.26,-3.78 -2.16,-8.19 -2.52,-13.41 -0.45,-5.13 -0.72,-11.43 -0.72,-18.9 v -20.7 c 0,-4.95 -1.17,-8.82 -3.42,-11.34 -2.25,-2.43 -5.13,-3.69 -8.64,-3.69"
         id="path2844" /></clipPath><linearGradient
       x1="0"
       y1="0"
       x2="1"
       y2="0"
       gradientUnits="userSpaceOnUse"
       gradientTransform="matrix(8000,-8000,-8000,-8000,0.00488281,8000)"
       spreadMethod="pad"
       id="linearGradient2852"><stop
         style="stop-opacity:1;stop-color:#88929c"
         offset="0"
         id="stop2848" /><stop
         style="stop-opacity:1;stop-color:#6b8196"
         offset="1"
         id="stop2850" /></linearGradient><clipPath
       clipPathUnits="userSpaceOnUse"
       id="clipPath2862"><path
         d="m 7119.18,6811.19 c -8.46,0 -15.75,1.35 -21.87,4.05 -6.12,2.7 -10.62,6.12 -13.5,10.17 -2.88,4.14 -4.41,8.19 -4.41,12.33 0,2.7 0.99,5.04 2.88,6.93 1.8,1.98 4.23,2.97 7.02,2.97 2.52,0 4.41,-0.63 5.76,-1.89 1.35,-1.35 2.61,-3.15 3.78,-5.4 2.52,-4.41 5.4,-7.74 8.82,-9.9 3.33,-2.25 8.01,-3.33 13.86,-3.33 4.77,0 8.64,1.17 11.7,3.33 3.06,2.25 4.59,4.77 4.59,7.56 0,4.41 -1.62,7.65 -4.77,9.54 -3.15,2.07 -8.37,3.96 -15.57,5.76 -8.19,2.16 -14.85,4.41 -19.98,6.66 -5.13,2.34 -9.36,5.49 -12.33,9.27 -3.06,3.78 -4.68,8.46 -4.68,14.04 0,5.04 1.44,9.72 4.32,14.04 2.79,4.5 7.02,8.01 12.6,10.62 5.49,2.61 12.15,3.96 20.07,3.96 6.12,0 11.61,-0.63 16.56,-1.98 4.86,-1.35 9,-3.15 12.24,-5.31 3.24,-2.25 5.76,-4.77 7.47,-7.47 1.8,-2.79 2.61,-5.4 2.61,-8.01 0,-2.88 -0.9,-5.13 -2.79,-7.02 -1.8,-1.71 -4.41,-2.7 -7.74,-2.7 -2.43,0 -4.5,0.72 -6.3,2.25 -1.62,1.44 -3.6,3.6 -5.85,6.48 -1.8,2.43 -3.87,4.32 -6.3,5.76 -2.52,1.44 -5.76,2.25 -9.9,2.25 -4.32,0 -7.92,-0.99 -10.71,-2.88 -2.88,-1.89 -4.32,-4.32 -4.32,-7.11 0,-2.61 1.08,-4.77 3.15,-6.48 2.07,-1.62 4.86,-2.97 8.46,-4.14 3.51,-1.08 8.37,-2.43 14.58,-3.96 7.38,-1.89 13.41,-4.14 18.09,-6.75 4.68,-2.52 8.19,-5.67 10.62,-9.18 2.43,-3.6 3.6,-7.56 3.6,-12.15 0,-6.84 -1.53,-12.69 -4.77,-17.55 -3.24,-4.86 -7.92,-8.55 -14.13,-11.07 -6.3,-2.43 -13.86,-3.69 -22.86,-3.69"
         id="path2860" /></clipPath><linearGradient
       x1="0"
       y1="0"
       x2="1"
       y2="0"
       gradientUnits="userSpaceOnUse"
       gradientTransform="matrix(8000,-8000,-8000,-8000,0.00488281,8000)"
       spreadMethod="pad"
       id="linearGradient2868"><stop
         style="stop-opacity:1;stop-color:#88929c"
         offset="0"
         id="stop2864" /><stop
         style="stop-opacity:1;stop-color:#6b8196"
         offset="1"
         id="stop2866" /></linearGradient><clipPath
       clipPathUnits="userSpaceOnUse"
       id="clipPath2878"><path
         d="m 7187.94,6811.19 c -3.6,0 -6.75,1.17 -9.27,3.6 -2.7,2.43 -3.96,5.85 -3.96,10.17 0,3.69 1.26,6.84 3.69,9.54 2.52,2.61 5.58,3.96 9.27,3.96 3.6,0 6.75,-1.35 9.27,-3.96 2.61,-2.61 3.87,-5.85 3.87,-9.54 0,-4.32 -1.26,-7.65 -3.87,-10.08 -2.52,-2.52 -5.58,-3.69 -9,-3.69"
         id="path2876" /></clipPath><linearGradient
       x1="0"
       y1="0"
       x2="1"
       y2="0"
       gradientUnits="userSpaceOnUse"
       gradientTransform="matrix(8000,-8000,-8000,-8000,0.00488281,8000)"
       spreadMethod="pad"
       id="linearGradient2884"><stop
         style="stop-opacity:1;stop-color:#88929c"
         offset="0"
         id="stop2880" /><stop
         style="stop-opacity:1;stop-color:#6b8196"
         offset="1"
         id="stop2882" /></linearGradient><clipPath
       clipPathUnits="userSpaceOnUse"
       id="clipPath2894"><path
         d="m 7269.39,6811.19 c -7.2,0 -13.68,1.17 -19.44,3.6 -5.76,2.43 -10.62,5.85 -14.85,10.35 -4.23,4.59 -7.47,9.9 -9.63,16.02 -2.16,6.12 -3.24,12.87 -3.24,20.34 0,7.56 1.08,14.4 3.33,20.61 2.25,6.21 5.31,11.52 9.45,16.02 4.14,4.41 9.09,7.83 14.94,10.17 5.85,2.43 12.33,3.6 19.44,3.6 7.2,0 13.68,-1.17 19.53,-3.6 5.85,-2.43 10.89,-5.94 15.03,-10.35 4.23,-4.5 7.38,-9.9 9.54,-16.02 2.16,-6.21 3.33,-12.96 3.33,-20.43 0,-7.38 -1.17,-14.13 -3.33,-20.43 -2.25,-6.21 -5.4,-11.52 -9.63,-16.02 -4.14,-4.5 -9.09,-7.83 -14.94,-10.35 -5.76,-2.34 -12.33,-3.51 -19.53,-3.51 m 0,82.35 c -4.68,0 -8.73,-1.26 -12.24,-3.78 -3.6,-2.52 -6.3,-6.21 -8.19,-11.16 -1.89,-4.86 -2.88,-10.53 -2.88,-17.1 0,-6.48 0.9,-12.15 2.79,-16.92 1.98,-4.86 4.59,-8.55 8.1,-11.16 3.51,-2.61 7.65,-3.87 12.42,-3.87 7.2,0 12.87,2.88 17.1,8.46 4.32,5.67 6.39,13.5 6.39,23.49 0,10.08 -2.07,18 -6.39,23.58 -4.23,5.58 -9.9,8.46 -17.1,8.46"
         id="path2892" /></clipPath><linearGradient
       x1="0"
       y1="0"
       x2="1"
       y2="0"
       gradientUnits="userSpaceOnUse"
       gradientTransform="matrix(8000,-8000,-8000,-8000,0.00488281,8000)"
       spreadMethod="pad"
       id="linearGradient2900"><stop
         style="stop-opacity:1;stop-color:#88929c"
         offset="0"
         id="stop2896" /><stop
         style="stop-opacity:1;stop-color:#6b8196"
         offset="1"
         id="stop2898" /></linearGradient><clipPath
       clipPathUnits="userSpaceOnUse"
       id="clipPath2910"><path
         d="m 7347.06,6811.19 c -3.42,0 -6.21,1.26 -8.46,3.78 -2.16,2.52 -3.24,6.3 -3.24,11.25 v 69.03 c 0,11.16 3.87,16.65 11.52,16.65 3.96,0 6.75,-1.35 8.55,-3.87 1.71,-2.61 2.7,-6.48 2.88,-11.52 2.79,5.04 5.76,8.91 8.73,11.52 2.97,2.52 6.93,3.87 11.88,3.87 5.13,0 9.9,-1.35 14.58,-3.87 4.68,-2.61 7.11,-6.03 7.11,-10.35 0,-3.06 -1.08,-5.58 -3.06,-7.47 -1.98,-1.98 -4.14,-2.97 -6.48,-2.97 -0.81,0 -2.97,0.54 -6.3,1.71 -3.33,1.08 -6.3,1.62 -8.82,1.62 -3.51,0 -6.3,-0.9 -8.55,-2.88 -2.16,-1.89 -3.87,-4.68 -5.13,-8.46 -1.17,-3.78 -2.07,-8.19 -2.52,-13.41 -0.45,-5.13 -0.72,-11.43 -0.72,-18.9 v -20.7 c 0,-4.95 -1.08,-8.82 -3.33,-11.34 -2.25,-2.43 -5.13,-3.69 -8.64,-3.69"
         id="path2908" /></clipPath><linearGradient
       x1="0"
       y1="0"
       x2="1"
       y2="0"
       gradientUnits="userSpaceOnUse"
       gradientTransform="matrix(8000,-8000,-8000,-8000,0.00488281,8000)"
       spreadMethod="pad"
       id="linearGradient2916"><stop
         style="stop-opacity:1;stop-color:#88929c"
         offset="0"
         id="stop2912" /><stop
         style="stop-opacity:1;stop-color:#6b8196"
         offset="1"
         id="stop2914" /></linearGradient><clipPath
       clipPathUnits="userSpaceOnUse"
       id="clipPath2926"><path
         d="m 7448.85,6774.38 c -8.19,0 -15.48,1.17 -21.87,3.6 -6.48,2.43 -11.43,5.49 -14.94,9.27 -3.42,3.78 -5.22,7.65 -5.22,11.7 0,2.97 0.99,5.49 2.97,7.38 1.98,1.89 4.32,2.88 7.11,2.88 3.51,0 6.57,-1.62 9.18,-4.86 1.26,-1.62 2.61,-3.24 3.96,-4.95 1.35,-1.62 2.88,-3.06 4.5,-4.23 1.62,-1.26 3.69,-2.07 6.03,-2.7 2.25,-0.54 4.95,-0.81 7.92,-0.81 6.12,0 10.98,0.9 14.31,2.61 3.42,1.8 5.76,4.32 7.2,7.47 1.26,3.24 2.16,6.66 2.34,10.35 0.27,3.69 0.36,9.54 0.54,17.64 -3.6,-5.22 -7.92,-9.36 -12.69,-12.15 -4.77,-2.7 -10.44,-4.14 -17.01,-4.14 -8.01,0 -14.94,2.07 -20.88,6.39 -5.94,4.23 -10.53,10.17 -13.68,17.82 -3.15,7.56 -4.86,16.38 -4.86,26.37 0,7.47 0.99,14.22 2.97,20.16 1.89,6.03 4.68,11.07 8.28,15.21 3.6,4.05 7.74,7.2 12.42,9.27 4.77,2.07 9.9,3.15 15.57,3.15 6.66,0 12.51,-1.35 17.46,-4.05 4.95,-2.7 9.45,-6.93 13.68,-12.69 v 3.33 c 0,4.32 1.08,7.65 3.06,10.08 2.07,2.34 4.68,3.51 7.83,3.51 4.59,0 7.65,-1.53 9.18,-4.68 1.44,-3.15 2.25,-7.65 2.25,-13.5 v -72.09 c 0,-8.19 -0.9,-15.3 -2.52,-21.15 -1.71,-6.03 -4.41,-10.89 -8.1,-14.76 -3.69,-3.87 -8.64,-6.75 -14.58,-8.64 -6.03,-1.8 -13.5,-2.79 -22.41,-2.79 m 1.26,119.07 c -6.75,0 -12.24,-2.79 -16.29,-8.1 -4.14,-5.4 -6.21,-13.05 -6.21,-23.04 0,-9.99 2.16,-17.55 6.39,-22.77 4.14,-5.13 9.63,-7.74 16.2,-7.74 3.96,0 7.74,1.17 11.25,3.42 3.51,2.16 6.3,5.49 8.55,9.9 2.25,4.5 3.33,9.9 3.33,16.2 0,10.17 -2.16,18 -6.48,23.58 -4.23,5.67 -9.81,8.55 -16.74,8.55"
         id="path2924" /></clipPath><linearGradient
       x1="0"
       y1="0"
       x2="1"
       y2="0"
       gradientUnits="userSpaceOnUse"
       gradientTransform="matrix(8000,-8000,-8000,-8000,0.00488281,8000)"
       spreadMethod="pad"
       id="linearGradient2932"><stop
         style="stop-opacity:1;stop-color:#88929c"
         offset="0"
         id="stop2928" /><stop
         style="stop-opacity:1;stop-color:#6b8196"
         offset="1"
         id="stop2930" /></linearGradient><clipPath
       clipPathUnits="userSpaceOnUse"
       id="clipPath2942"><path
         d="m 6432.03,7011.89 c -38.43,0 -71.28,14.22 -98.46,42.66 -27.18,28.35 -40.77,62.64 -40.77,102.78 0,40.05 13.59,74.34 40.77,102.78 27.18,28.35 60.03,42.57 98.46,42.57 38.43,0 71.19,-14.22 98.37,-42.57 27.18,-28.44 40.86,-62.73 40.86,-102.78 0,-40.14 -13.68,-74.43 -40.86,-102.78 -27.18,-28.44 -59.94,-42.66 -98.37,-42.66 m -53.62,48.45 c 15.72,-10.4 33.6,-15.6 53.62,-15.6 28.98,0 53.37,10.89 73.35,32.67 19.98,21.69 29.97,48.42 29.97,79.92 0,28.37 -8.11,52.8 -24.32,73.29 l 7.76,9.96 -20.34,17.19 -6.36,-8.16 c -17.23,13.5 -37.22,20.22 -60.06,20.22 -28.98,0 -53.46,-10.8 -73.44,-32.58 -19.98,-21.78 -29.97,-48.42 -29.97,-79.92 0,-31.3 9.87,-57.9 29.6,-79.51 l -9.08,-11.66 20.34,-17.28 8.93,11.46 m 57.4,14.64 c -14.65,0 -27.42,3.31 -38.31,9.88 l 21.31,27.36 c 5.29,-2.93 11.44,-4.39 18.44,-4.39 18.99,0 28.98,9.09 30.06,27.27 h 35.19 c -2.52,-18.99 -10.26,-33.84 -23.22,-44.46 -11.97,-10.44 -26.46,-15.66 -43.47,-15.66 m -57.99,27.99 c -11.04,14.81 -16.53,33.34 -16.53,55.62 0,24.75 6.48,44.55 19.35,59.58 12.78,14.94 30.96,22.5 54.45,22.5 15.89,0 29.55,-3.96 40.9,-11.72 l -20.12,-25.82 c -4.65,3.07 -10.61,4.6 -17.9,4.6 -27.18,0 -40.86,-16.11 -40.86,-48.33 0,-9.83 1.49,-18.47 4.46,-25.96 l -23.75,-30.47 m 124.68,81 h -27.8 l 19.51,25.05 c 4.11,-7.28 6.89,-15.63 8.29,-25.05"
         id="path2940" /></clipPath><linearGradient
       x1="0"
       y1="0"
       x2="1"
       y2="0"
       gradientUnits="userSpaceOnUse"
       gradientTransform="matrix(8000,-8000,-8000,-8000,0.00488281,8000)"
       spreadMethod="pad"
       id="linearGradient2948"><stop
         style="stop-opacity:1;stop-color:#88929c"
         offset="0"
         id="stop2944" /><stop
         style="stop-opacity:1;stop-color:#6b8196"
         offset="1"
         id="stop2946" /></linearGradient><clipPath
       clipPathUnits="userSpaceOnUse"
       id="clipPath2958"><path
         d="m 6369.48,7048.88 -20.34,17.28 9.08,11.66 19.6,25.15 23.75,30.47 54.3,69.69 20.12,25.82 16.1,20.66 6.36,8.16 20.34,-17.19 -7.76,-9.96 -16.82,-21.6 -19.51,-25.05 -55.89,-71.75 -21.31,-27.36 -19.09,-24.52 -8.93,-11.46"
         id="path2956" /></clipPath><linearGradient
       x1="0"
       y1="0"
       x2="1"
       y2="0"
       gradientUnits="userSpaceOnUse"
       gradientTransform="matrix(8000,-8000,-8000,-8000,0.00488281,8000)"
       spreadMethod="pad"
       id="linearGradient2964"><stop
         style="stop-opacity:1;stop-color:#88929c"
         offset="0"
         id="stop2960" /><stop
         style="stop-opacity:1;stop-color:#6b8196"
         offset="1"
         id="stop2962" /></linearGradient><linearGradient
       inkscape:collect="always"
       xlink:href="#linearGradient1038"
       id="linearGradient1040"
       x1="218.60355"
       y1="92.326263"
       x2="431.28317"
       y2="92.326263"
       gradientUnits="userSpaceOnUse" /></defs><sodipodi:namedview
     pagecolor="#ffffff"
     bordercolor="#666666"
     borderopacity="1"
     objecttolerance="10"
     gridtolerance="10"
     guidetolerance="10"
     inkscape:pageopacity="0"
     inkscape:pageshadow="2"
     inkscape:window-width="2560"
     inkscape:window-height="1376"
     id="namedview60"
     showgrid="false"
     inkscape:snap-global="true"
     inkscape:zoom="1.1531203"
     inkscape:cx="556.5212"
     inkscape:cy="418.56988"
     inkscape:window-x="0"
     inkscape:window-y="27"
     inkscape:window-maximized="1"
     inkscape:current-layer="g6514"
     inkscape:document-rotation="0"
     inkscape:pagecheckerboard="true"
     units="mm" /><g
     inkscape:groupmode="layer"
     id="layer2"
     inkscape:label="flask 1"><flowRoot
       xml:space="preserve"
       id="flowRoot4198"
       style="fill:black;fill-opacity:1;stroke:none;font-family:sans-serif;font-style:normal;font-weight:normal;font-size:40px;line-height:1.25;letter-spacing:0px;word-spacing:0px"><flowRegion
         id="flowRegion4200"><rect
           id="rect4202"
           width="5.2032733"
           height="49.431095"
           x="722.38776"
           y="529.42004" /></flowRegion><flowPara
         id="flowPara4204" /></flowRoot></g><g
     inkscape:groupmode="layer"
     id="layer1"
     inkscape:label="flask"
     style="opacity:1"><path
   d=""
   id="path3144"
   style="stroke-width:1.2549" /><text
   xml:space="preserve"
   id="text2045"
   style="font-style:normal;font-variant:normal;font-weight:normal;font-stretch:normal;font-size:133.333px;line-height:1.25;font-family:sans-serif;-inkscape-font-specification:'sans-serif, Normal';font-variant-ligatures:normal;font-variant-caps:normal;font-variant-numeric:normal;font-variant-east-asian:normal;white-space:pre;shape-inside:url(#rect2047);fill:#000000;fill-opacity:1;stroke:none;"
   transform="translate(-40.793759,-217.56671)"><tspan
     style="visibility:hidden"
     x="244.21875"
     y="556.77654"
     id="tspan4173"><tspan
       dx="0 93.098717 56.119652 102.73412 56.119659"
       style="font-style:normal;font-variant:normal;font-weight:normal;font-stretch:normal;font-size:133.333px;font-family:sans-serif;-inkscape-font-specification:'sans-serif, Normal';font-variant-ligatures:normal;font-variant-caps:normal;font-variant-numeric:normal;font-variant-east-asian:normal"
       id="tspan4171">CIDIC</tspan></tspan></text>



<text
   xml:space="preserve"
   id="text2051"
   style="font-style:normal;font-variant:normal;font-weight:normal;font-stretch:normal;font-size:40px;line-height:1.25;font-family:sans-serif;-inkscape-font-specification:'sans-serif, Normal';font-variant-ligatures:normal;font-variant-caps:normal;font-variant-numeric:normal;font-variant-east-asian:normal;white-space:pre;shape-inside:url(#rect2053);fill:#000000;fill-opacity:1;stroke:none;"><tspan
     style="visibility:hidden"
     x="260.76367"
     y="221.10454"
     id="tspan4178"><tspan
       dx="0 27.929688 16.835938 30.820312 16.835938"
       id="tspan4176">CIDIC</tspan></tspan></text>



<text
   xml:space="preserve"
   id="text2057"
   style="font-style:normal;font-variant:normal;font-weight:normal;font-stretch:normal;font-size:120px;line-height:1.25;font-family:sans-serif;-inkscape-font-specification:'sans-serif, Normal';font-variant-ligatures:normal;font-variant-caps:normal;font-variant-numeric:normal;font-variant-east-asian:normal;white-space:pre;shape-inside:url(#rect2059);fill:#000000;fill-opacity:1;stroke:none;"><tspan
     style="visibility:hidden"
     x="304.60938"
     y="294.09097"
     id="tspan4183"><tspan
       dx="0 83.789062 50.507812 92.460938 50.507812"
       style="font-style:normal;font-variant:normal;font-weight:normal;font-stretch:normal;font-size:120px;font-family:sans-serif;-inkscape-font-specification:'sans-serif, Normal';font-variant-ligatures:normal;font-variant-caps:normal;font-variant-numeric:normal;font-variant-east-asian:normal"
       id="tspan4181">CIDIC</tspan></tspan></text>



<g
   style="opacity:1"
   id="g6514"
   transform="translate(42.493397,-4.0704852)">
<text
   inkscape:export-ydpi="96"
   inkscape:export-xdpi="96"
   inkscape:export-filename="C:\Users\nico\text2043.png"
   transform="scale(0.96219599,1.0392893)"
   id="text2043"
   y="436.45181"
   x="79.849304"
   style="font-style:normal;font-variant:normal;font-weight:normal;font-stretch:normal;font-size:313.37701416px;line-height:1.25;font-family:sans-serif;-inkscape-font-specification:'sans-serif, Normal';font-variant-ligatures:normal;font-variant-caps:normal;font-variant-numeric:normal;fill:#000000;fill-opacity:1;stroke:#ffffff;stroke-width:5.00000001;stroke-opacity:1;stroke-miterlimit:4;stroke-dasharray:none"
   xml:space="preserve"><tspan
     style="stroke-width:5.00000001;stroke:#ffffff;stroke-opacity:1;stroke-miterlimit:4;stroke-dasharray:none"
     y="436.45181"
     x="79.849304"
     id="tspan2041"
     sodipodi:role="line">A</tspan></text>



<path
   inkscape:export-ydpi="96"
   inkscape:export-xdpi="96"
   inkscape:export-filename="C:\Users\nico\text2043.png"
   sodipodi:nodetypes="cccccsccssccscscsccccccccccsccccsscccscccccccc"
   d="M 110.72613,49.050502 C 96.177105,51.2624 84.43875,62.02839 82.869688,80.545996 83.248687,100.7907 94.573069,105.50464 110.17639,111.8641 c 4.16009,44.74047 12.51338,92.94794 -4.90706,133.6953 -40.685589,72.81711 -64.612254,227.27646 -95.7581602,305.91382 -2.8528804,7.23886 -4.814646,18.96081 -3.4580484,28.26021 1.2139947,8.32181 2.5404481,14.82017 10.3797286,24.84932 5.538735,4.70156 14.468986,9.8491 32.318419,13.20936 17.284054,1.9641 29.058189,2.73566 39.530703,2.10766 18.093998,-1.08504 24.374658,0.44347 202.595368,-0.0153 13.73213,-0.0366 19.46298,-1.26049 25.22334,-2.03351 15.6044,-1.9842 23.66439,-6.86897 28.13756,-11.12467 9.73249,-10.15192 12.78161,-23.72002 12.48174,-32.90346 -0.33335,-10.20878 -1.93507,-18.7388 -3.853,-22.17447 -28.07496,-71.66336 -66.88929,-228.45321 -104.79415,-299.0377 -1.94972,-3.6307 -3.43663,-6.69605 -4.87744,-10.57228 -1.6691,-4.71525 -3.03317,-10.40258 -3.90961,-15.44839 -6.55562,-37.74104 -6.43159,-75.85924 0.58113,-113.96907 14.19191,-4.71622 26.84033,-11.94468 26.49794,-31.704588 C 266.15046,61.498525 254.84267,52.574639 237.37721,50.467555 204.40919,50.325881 147.5287,48.897348 110.72613,49.050262 Z m 1.3799,21.342911 123.6051,1.048912 c 3.6967,1.507822 8.00775,1.328848 9.51749,9.930664 -1.1834,4.976753 -3.37479,8.470207 -15.50211,11.513963 -4.55307,0.907117 -6.27665,3.170239 -9.94981,10.506408 -12.27778,46.71524 -6.25554,97.74326 2.88395,142.91856 2.00497,8.98292 5.74557,18.00415 10.72013,26.52222 38.45415,65.8455 77.39864,219.5209 100.75567,291.07544 0.70048,5.28249 1.8373,9.72387 0.71211,17.39043 -0.211,3.25305 -1.4844,5.77182 -3.46098,7.80477 -3.93304,3.47109 -7.88374,5.89322 -14.34676,7.68913 -12.73652,4.02157 -30.33692,2.21725 -47.12024,1.80819 -59.71868,-1.45545 -120.07651,0.77561 -180.675702,0.35256 -11.225696,-0.0784 -22.655687,-1.10235 -33.87654,-0.99249 -12.757348,-1.1643 -20.980496,-2.69695 -25.37938,-9.21201 -3.971383,-9.73363 -3.927618,-18.14643 -1.755286,-24.88904 24.47535,-75.96793 49.802123,-224.11576 86.796838,-290.7384 4.89019,-8.80661 8.24523,-18.2622 12.01705,-28.54558 13.26077,-48.857 7.8908,-97.60318 4.85731,-135.50009 -0.87553,-4.10472 -2.68518,-8.20943 -5.1914,-12.314143 -2.80277,-3.449754 -4.81235,-5.438054 -8.68482,-5.6992 -9.41657,-0.299472 -13.1046,-4.828626 -13.62324,-10.518103 -0.16101,-4.74328 2.15153,-8.122685 7.70068,-10.152044 z"
   style="fill:#007cff;fill-opacity:0.67450998;stroke:#0067ff;stroke-width:2.4677701;stroke-linecap:butt;stroke-linejoin:miter;stroke-miterlimit:4;stroke-dasharray:none;stroke-opacity:0.98823499"
   id="path4029-5"
   inkscape:connector-curvature="0" /><ellipse
   inkscape:export-ydpi="96"
   inkscape:export-xdpi="96"
   inkscape:export-filename="C:\Users\nico\text2043.png"
   ry="9.0407524"
   rx="9.4136419"
   cy="400.88998"
   cx="146.30122"
   id="path4054-6-0"
   style="fill:#008dff;fill-opacity:1;stroke:#0067ff;stroke-width:0;stroke-miterlimit:4;stroke-dasharray:none;stroke-opacity:0.99615401" /><ellipse
   inkscape:export-ydpi="96"
   inkscape:export-xdpi="96"
   inkscape:export-filename="C:\Users\nico\text2043.png"
   ry="12.377646"
   rx="12.401439"
   cy="318.93985"
   cx="178.00903"
   id="path4054-9-8"
   style="fill:#008dff;fill-opacity:1;stroke:#0067ff;stroke-width:0;stroke-miterlimit:4;stroke-dasharray:none;stroke-opacity:0.59615395" /><ellipse
   inkscape:export-ydpi="96"
   inkscape:export-xdpi="96"
   inkscape:export-filename="C:\Users\nico\text2043.png"
   ry="12.377646"
   rx="12.401439"
   cy="198.56772"
   cx="192.66524"
   id="path4054-4-5"
   style="fill:#008dff;fill-opacity:1;stroke:#0067ff;stroke-width:0;stroke-miterlimit:4;stroke-dasharray:none;stroke-opacity:0.59615395" /><ellipse
   inkscape:export-ydpi="96"
   inkscape:export-xdpi="96"
   inkscape:export-filename="C:\Users\nico\text2043.png"
   ry="8.2025576"
   rx="8.4270144"
   cy="155.98929"
   cx="156.21191"
   id="path4054-95-3"
   style="fill:#008dff;fill-opacity:1;stroke:#0067ff;stroke-width:0;stroke-miterlimit:4;stroke-dasharray:none;stroke-opacity:0.59615395" /><ellipse
   inkscape:export-ydpi="96"
   inkscape:export-xdpi="96"
   inkscape:export-filename="C:\Users\nico\text2043.png"
   ry="10.288121"
   rx="10.383229"
   cy="16.784138"
   cx="133.62164"
   id="path4054-46-7"
   style="fill:#008dff;fill-opacity:1;stroke:#0067ff;stroke-width:0;stroke-miterlimit:4;stroke-dasharray:none;stroke-opacity:0.59615395" /><ellipse
   inkscape:export-ydpi="96"
   inkscape:export-xdpi="96"
   inkscape:export-filename="C:\Users\nico\text2043.png"
   ry="7.0926208"
   rx="7.3199396"
   cy="124.85046"
   cx="191.5815"
   id="path4054-46-4-7"
   style="fill:#008dff;fill-opacity:1;stroke:#0067ff;stroke-width:0;stroke-miterlimit:4;stroke-dasharray:none;stroke-opacity:0.59615395" /><ellipse
   inkscape:export-ydpi="96"
   inkscape:export-xdpi="96"
   inkscape:export-filename="C:\Users\nico\text2043.png"
   ry="12.579909"
   rx="13.766244"
   cy="21.382305"
   cx="214.02898"
   id="path4054-46-6-1"
   style="fill:#008dff;fill-opacity:1;stroke:#0067ff;stroke-width:0;stroke-miterlimit:4;stroke-dasharray:none;stroke-opacity:0.59615395" /><ellipse
   inkscape:export-ydpi="96"
   inkscape:export-xdpi="96"
   inkscape:export-filename="C:\Users\nico\text2043.png"
   ry="10.288121"
   rx="10.383229"
   cy="87.042702"
   cx="159.67964"
   id="path4054-46-9-9"
   style="fill:#008dff;fill-opacity:1;stroke:#0067ff;stroke-width:0;stroke-miterlimit:4;stroke-dasharray:none;stroke-opacity:0.59615395" /><path
   inkscape:export-ydpi="96"
   inkscape:export-xdpi="96"
   inkscape:export-filename="C:\Users\nico\text2043.png"
   sodipodi:nodetypes="cccccccccccccccccccccccc"
   id="path4263-7"
   d="m 224.15166,415.17928 c -6.88433,-0.31374 -13.1794,2.95103 -19.69787,4.64202 -10.08713,2.94494 -49.94513,4.42245 -60.26803,6.34835 -6.67007,0.8439 -17.76416,-1.47106 -23.73462,-4.28578 -4.31683,-1.96851 -8.04171,-5.89703 -12.94778,-6.75915 -7.47562,-1.36932 -15.578379,1.04195 -21.181876,6.26775 -2.330515,3.13188 -2.639835,6.28608 -4.588135,9.67425 -13.159734,38.97613 -20.186271,67.31955 -38.505634,124.28149 -3.351118,6.64977 -3.894407,15.32157 -2.217021,22.55188 0.644894,3.06684 4.503283,6.39815 7.542142,7.46674 6.50403,3.33129 10.362048,3.45959 17.50384,4.10615 29.031414,0.58705 58.072314,0.48479 87.108204,0.67234 45.18689,0.0937 90.37916,0.37161 135.56199,-0.38864 7.77885,-0.2306 15.67373,-0.10699 23.2353,-2.28068 4.62516,-1.23726 10.3573,-2.30004 12.59525,-7.22575 1.70644,-4.47978 0.62251,-9.4323 0.41201,-14.19985 -1.54372,-6.45187 -3.60434,-11.94181 -5.9007,-18.14248 -5.05931,-12.7617 -10.50519,-33.03227 -14.97367,-45.66648 -7.57303,-28.56214 -14.06182,-50.82251 -31.01722,-72.6244 -1.45943,-3.11244 -4.74652,-4.39476 -7.84119,-5.053 -10.15839,-3.19981 -15.94649,-5.89985 -26.36546,-8.01595 -3.49566,-0.85796 -7.00746,-1.66716 -10.6278,-1.36021 -1.3639,-0.001 -2.72779,-0.0125 -4.09173,-0.006 z"
   style="fill:#008dff;fill-opacity:1;stroke:#0067ff;stroke-width:3.20543003;stroke-miterlimit:4;stroke-dasharray:none;stroke-opacity:1"
   inkscape:connector-curvature="0" /><text
   inkscape:export-ydpi="96"
   inkscape:export-xdpi="96"
   inkscape:export-filename="C:\Users\nico\text2043.png"
   transform="matrix(5.0303415,0,0,4.6248475,-766.54963,-50.754191)"
   style="font-style:normal;font-variant:normal;font-weight:normal;font-stretch:normal;font-size:80px;line-height:1.25;font-family:sans-serif;-inkscape-font-specification:'sans-serif, Normal';font-variant-ligatures:normal;font-variant-caps:normal;font-variant-numeric:normal;white-space:pre;shape-inside:url(#rect2067);fill:#000000;fill-opacity:1;stroke:#ffffff;stroke-opacity:1;stroke-width:1.03662711;stroke-miterlimit:4;stroke-dasharray:none"
   id="text2065"
   xml:space="preserve"><tspan
     style="fill:#000000;fill-opacity:1;stroke:#ffffff;stroke-opacity:1;stroke-width:1.03662711;stroke-miterlimit:4;stroke-dasharray:none"
     id="tspan4188"
     y="121.44736"
     x="214.61133"><tspan
       id="tspan4186"
       style="font-style:normal;font-variant:normal;font-weight:normal;font-stretch:normal;font-size:80px;font-family:sans-serif;-inkscape-font-specification:'sans-serif, Normal';font-variant-ligatures:normal;font-variant-caps:normal;font-variant-numeric:normal;fill:#000000;fill-opacity:1;stroke:#ffffff;stroke-opacity:1;stroke-width:1.03662711;stroke-miterlimit:4;stroke-dasharray:none">CIDIC</tspan></tspan></text>



</g></g></svg>